<svg width="42" height="42" viewBox="0 0 42 42" fill="none" xmlns="http://www.w3.org/2000/svg">
<g clip-path="url(#clip0_119_571)">
<path d="M35.8495 35.8492C44.0505 27.6482 44.0505 14.3518 35.8495 6.15076C27.6485 -2.05025 14.352 -2.05025 6.151 6.15076C-2.05001 14.3518 -2.05001 27.6482 6.151 35.8492C14.352 44.0503 27.6485 44.0503 35.8495 35.8492Z" fill="white"/>
<mask id="mask0_119_571" style="mask-type:luminance" maskUnits="userSpaceOnUse" x="0" y="0" width="42" height="42">
<path d="M35.483 35.4833C43.4819 27.4844 43.4819 14.5156 35.483 6.51672C27.4841 -1.48217 14.5154 -1.48217 6.51648 6.51672C-1.48241 14.5156 -1.48241 27.4844 6.51648 35.4833C14.5154 43.4822 27.4841 43.4822 35.483 35.4833Z" fill="white"/>
</mask>
<g mask="url(#mask0_119_571)">
<path d="M57.0273 -0.0172119H-15.0293V42.0171H57.0273V-0.0172119Z" fill="#3A8E35"/>
<path d="M-3.9209 20.999L20.9982 36.913L45.9191 20.999L20.9982 5.08691L-3.9209 20.999Z" fill="#F0C400"/>
<path d="M31.5075 20.9991C31.5075 26.8005 26.7999 31.5082 20.9985 31.5082C15.1971 31.5082 10.4922 26.8005 10.4922 20.9991C10.4922 15.1977 15.1998 10.4928 20.9985 10.4928C26.7972 10.4928 31.5075 15.2004 31.5075 20.9991Z" fill="#332565"/>
<path d="M14.9954 16.4965C13.7706 16.4965 12.5639 16.585 11.3843 16.7494C11.1594 17.2651 10.9706 17.8025 10.8252 18.3571C12.1791 18.1232 13.5719 17.9967 14.9954 17.9967C21.1572 17.9967 26.778 20.3207 31.0313 24.135C31.1984 23.6003 31.323 23.0439 31.4034 22.4749C26.9658 18.7446 21.243 16.4965 14.9945 16.4965" fill="white"/>
<path fill-rule="evenodd" clip-rule="evenodd" d="M12.0369 17.9271C12.2826 17.8964 12.4569 17.6525 12.4235 17.3753C12.3901 17.1034 12.1634 16.9047 11.915 16.9336C11.6693 16.9625 11.4941 17.2127 11.5275 17.4855C11.5637 17.76 11.7904 17.9578 12.036 17.9271M12.0153 17.7429C12.1607 17.7239 12.2591 17.5713 12.2375 17.3987C12.2185 17.2244 12.0821 17.0998 11.9367 17.1196C11.7913 17.1359 11.691 17.2895 11.7145 17.4611C11.7335 17.6354 11.8698 17.76 12.0153 17.7429Z" fill="#3A8E35"/>
<path fill-rule="evenodd" clip-rule="evenodd" d="M12.852 17.8385L13.038 17.824L13.0146 17.4537L13.4111 17.4248C13.5854 17.413 13.7173 17.2622 13.7046 17.0879C13.6929 16.9163 13.542 16.7844 13.3677 16.7961L12.7969 16.8368L12.852 17.8376V17.8385ZM13.0001 17.2676L13.3849 17.2414C13.4544 17.2369 13.5086 17.1746 13.5041 17.1032C13.4969 17.0319 13.4373 16.9786 13.3677 16.9858L12.9811 17.0093L13.0001 17.2676Z" fill="#3A8E35"/>
<path d="M13.6995 17.779C13.6923 17.6354 13.6688 17.3202 13.4556 17.3373L13.1855 17.3563C13.4963 17.3346 13.5197 17.6471 13.5297 17.789" fill="#3A8E35"/>
<path fill-rule="evenodd" clip-rule="evenodd" d="M14.1215 17.7573L14.5921 17.7474C14.8305 17.7447 15.0175 17.5514 15.0148 17.3129L15.0103 17.1693C15.0058 16.9327 14.8125 16.7439 14.5758 16.7466L14.1025 16.7565L14.1215 17.7573ZM14.304 17.5713L14.5758 17.564C14.7267 17.5595 14.8432 17.4376 14.8405 17.2867V17.2009C14.8378 17.0528 14.714 16.9336 14.5632 16.9354L14.2913 16.9399L14.3031 17.5704L14.304 17.5713Z" fill="#3A8E35"/>
<path d="M15.3926 17.7456L16.2931 17.7764L16.2976 17.5903L15.5696 17.5668L15.5786 17.3085L16.1522 17.3275L16.1567 17.1558L15.5841 17.1369L15.5913 16.9382L16.2786 16.9626L16.2841 16.7738L15.426 16.7449L15.3926 17.7456Z" fill="#3A8E35"/>
<path d="M16.6602 17.8007L16.8327 17.8151L16.8923 17.1314L17.0305 17.8314L17.1885 17.8458L17.4487 17.1793L17.3863 17.863L17.5589 17.8793L17.6447 16.8812L17.3963 16.8595L17.1362 17.5261L16.9971 16.8234L16.7487 16.8026L16.6602 17.8007Z" fill="#3A8E35"/>
<path d="M18.7344 18.0319L19.475 18.1593L19.5057 17.9913L18.9322 17.8937L18.9701 17.667L19.4362 17.7483L19.4651 17.5785L19.0017 17.4999L19.0279 17.3446L19.5798 17.4403L19.6105 17.2705L18.887 17.144L18.7344 18.0319Z" fill="#3A8E35"/>
<path fill-rule="evenodd" clip-rule="evenodd" d="M20.6346 18.4076L20.8135 18.4528L20.9065 18.0942L21.2931 18.1918C21.4629 18.2369 21.6345 18.1349 21.6797 17.9669C21.7203 17.7998 21.62 17.6273 21.4529 17.5821L20.8984 17.4385L20.6328 18.4058L20.6346 18.4076ZM20.9553 17.9127L21.3301 18.0102C21.3969 18.0274 21.4683 17.9867 21.4855 17.9172C21.5026 17.8476 21.4611 17.779 21.3924 17.76L21.0194 17.6643L20.9553 17.9127Z" fill="#3A8E35"/>
<path fill-rule="evenodd" clip-rule="evenodd" d="M21.8633 18.732L22.0403 18.7889L22.1523 18.4358L22.5344 18.555C22.6988 18.6074 22.8758 18.5171 22.9309 18.35C22.9806 18.1856 22.8902 18.0085 22.725 17.9562L22.1758 17.7845L21.8633 18.7329V18.732ZM22.2092 18.2596L22.575 18.3744C22.6446 18.396 22.7159 18.3599 22.7367 18.2904C22.7584 18.2208 22.7222 18.1522 22.6536 18.1278L22.286 18.0131L22.2092 18.2587V18.2596Z" fill="#3A8E35"/>
<path d="M22.6746 18.9902C22.718 18.8538 22.811 18.5557 22.6078 18.4889L22.3477 18.4076C22.6484 18.5033 22.5536 18.8014 22.5102 18.9378" fill="#3A8E35"/>
<path fill-rule="evenodd" clip-rule="evenodd" d="M23.4942 19.2837C23.7282 19.3695 23.9955 19.2313 24.0913 18.973C24.187 18.7156 24.0768 18.4329 23.8456 18.3453C23.6117 18.2595 23.3443 18.3976 23.2486 18.656C23.151 18.9161 23.2603 19.1961 23.4942 19.2837ZM23.5584 19.1094C23.6947 19.1618 23.8546 19.0687 23.9169 18.9062C23.9766 18.7436 23.9169 18.572 23.7806 18.5196C23.6415 18.4699 23.4816 18.5575 23.422 18.7228C23.3597 18.8854 23.422 19.0597 23.5584 19.1094Z" fill="#3A8E35"/>
<path fill-rule="evenodd" clip-rule="evenodd" d="M24.672 19.7589C24.9014 19.8592 25.176 19.7327 25.2853 19.4798C25.3946 19.2269 25.2998 18.9424 25.0703 18.8421C24.8436 18.7446 24.5691 18.8656 24.4589 19.1212C24.3487 19.3741 24.4444 19.6613 24.6711 19.7589M24.7452 19.59C24.8789 19.6496 25.0432 19.5665 25.1128 19.4057C25.1842 19.2486 25.1318 19.0688 24.9963 19.0119C24.8644 18.955 24.6973 19.0354 24.6287 19.1962C24.5591 19.3543 24.6124 19.5304 24.7452 19.59Z" fill="#3A8E35"/>
<path d="M24.9367 19.3289L25.2854 19.4797L25.2285 19.6107L24.8789 19.458L24.9367 19.3289Z" fill="#3A8E35"/>
<path d="M25.1544 19.4235L24.9541 19.8821L25.0857 19.9396L25.286 19.481L25.1544 19.4235Z" fill="#3A8E35"/>
<path fill-rule="evenodd" clip-rule="evenodd" d="M25.4189 20.0958L25.586 20.1771L25.7531 19.8447L26.1089 20.0235C26.2661 20.1021 26.4549 20.038 26.5316 19.8826C26.6084 19.7273 26.5488 19.5385 26.3907 19.4599L25.8795 19.207L25.418 20.0958H25.4189ZM25.8344 19.6803L26.1803 19.8519C26.2444 19.8826 26.3212 19.8565 26.3519 19.795C26.3826 19.7309 26.3591 19.6541 26.295 19.6207L25.9509 19.4491L25.8344 19.6812V19.6803Z" fill="#3A8E35"/>
<path d="M26.1816 20.4732C26.2457 20.3468 26.3848 20.0668 26.1933 19.9692L25.9521 19.8473C26.2312 19.9882 26.0931 20.27 26.0289 20.3965" fill="#3A8E35"/>
<path d="M26.5537 20.6711L27.3377 21.1154L27.428 20.9529L26.7949 20.5925L26.9222 20.3703L27.419 20.6521L27.5048 20.5021L27.0053 20.2221L27.1029 20.046L27.7026 20.3847L27.7938 20.2221L27.046 19.7994L26.5537 20.6711Z" fill="#3A8E35"/>
<path d="M28.0133 21.1616C27.9609 21.2447 28.016 21.3404 28.1352 21.4172C28.2544 21.4931 28.3384 21.4885 28.3718 21.4362C28.4838 21.2645 27.8516 21.0135 28.0449 20.7145C28.212 20.4562 28.501 20.6576 28.6085 20.7262C28.7178 20.7958 28.893 20.9746 28.7566 21.1796L28.5724 21.0631C28.632 20.9728 28.5678 20.8843 28.4694 20.8265C28.3782 20.7624 28.2996 20.738 28.2454 20.8265C28.1524 20.9647 28.7729 21.2275 28.5823 21.5283C28.4441 21.7478 28.1975 21.6502 28.0358 21.5473C27.8968 21.4587 27.6899 21.2492 27.8254 21.0405L28.0142 21.1598L28.0133 21.1616Z" fill="#3A8E35"/>
<path d="M29.0881 21.8706C29.0285 21.9519 29.0781 22.0477 29.1956 22.1308C29.3103 22.2148 29.3934 22.2166 29.4322 22.1642C29.5514 21.9998 28.9309 21.7153 29.1405 21.4263C29.322 21.1779 29.5993 21.3928 29.7041 21.4669C29.8089 21.5437 29.9741 21.7297 29.8278 21.9275L29.649 21.8011C29.7113 21.7153 29.6535 21.6268 29.5578 21.5572C29.4692 21.4931 29.3952 21.4642 29.3356 21.5473C29.2353 21.681 29.8396 21.9772 29.6336 22.2635C29.4837 22.4785 29.2425 22.3683 29.0872 22.259C28.9535 22.1615 28.7575 21.9438 28.9029 21.7379L29.0872 21.8697L29.0881 21.8706Z" fill="#3A8E35"/>
<path fill-rule="evenodd" clip-rule="evenodd" d="M30.1028 23.0212C30.2961 23.1765 30.595 23.126 30.7667 22.911C30.9383 22.6933 30.9193 22.3952 30.726 22.2399C30.53 22.0845 30.2338 22.1324 30.0594 22.3492C29.8905 22.5669 29.9068 22.8676 30.1028 23.0203M30.2193 22.8758C30.3313 22.967 30.5129 22.9327 30.6203 22.7945C30.7305 22.6608 30.7233 22.4747 30.6086 22.3835C30.4939 22.2932 30.315 22.3284 30.2076 22.4648C30.0974 22.6012 30.1028 22.7845 30.2193 22.8758Z" fill="#3A8E35"/>
<path d="M12.5216 18.9731L12.4213 18.6624L12.3201 18.9731H11.9932L12.2569 19.1636L12.1557 19.4771L12.4213 19.2847L12.6841 19.4771L12.583 19.1655L12.8485 18.9731H12.5216Z" fill="white"/>
<path d="M13.452 23.3915L13.3499 23.079L13.2488 23.3915H12.9209L13.1873 23.5839L13.0853 23.8937L13.3499 23.7013L13.6155 23.8937L13.5143 23.5812L13.7781 23.3915H13.452Z" fill="white"/>
<path d="M12.1315 24.3806L12.0655 24.1729L11.9969 24.3806H11.7783L11.9535 24.5089L11.8858 24.7148L12.0628 24.5865L12.2417 24.7148L12.1739 24.5079L12.3492 24.3806H12.1315Z" fill="white"/>
<path d="M14.4287 22.8208L14.379 22.6709L14.3311 22.8208H14.1758L14.3004 22.913L14.2526 23.0602L14.379 22.9681L14.5055 23.0602L14.4576 22.913L14.584 22.8208H14.4287Z" fill="white"/>
<path d="M15.6214 24.4575L15.5383 24.1974L15.4543 24.4575H15.1797L15.4028 24.621L15.3179 24.8757L15.5374 24.7158L15.7578 24.8757L15.6738 24.6183L15.8941 24.4575H15.6214Z" fill="white"/>
<path d="M15.308 25.5006L15.2231 25.2405L15.1391 25.5006H14.8672L15.0876 25.6623L15.0027 25.9215L15.2231 25.7598L15.4425 25.9215L15.3594 25.6614L15.5807 25.5006H15.308Z" fill="white"/>
<path d="M24.3612 17.6002L24.261 17.2867L24.158 17.6002H23.8311L24.0957 17.7935L23.9954 18.1042L24.2592 17.9109L24.5238 18.1042L24.4227 17.7926L24.6855 17.6002H24.3612Z" fill="white"/>
<path d="M28.1974 24.7402L28.0962 25.0518L28.3618 24.8595L28.6273 25.0518L28.5262 24.7402L28.789 24.5478H28.4639L28.3618 24.238L28.2615 24.5478H27.9346L28.1974 24.7402Z" fill="white"/>
<path d="M29.9307 24.8224L30.105 24.6959H29.8891L29.8214 24.4882L29.7528 24.6959H29.5342L29.7103 24.8224L29.6444 25.0301L29.8205 24.9018L29.9975 25.0301L29.9307 24.8224Z" fill="white"/>
<path d="M28.8734 25.5006L28.7885 25.2405L28.7054 25.5006H28.4326L28.6539 25.6632L28.5717 25.9215L28.7912 25.7598L29.0134 25.9215L28.9285 25.6605L29.1471 25.5006H28.8734Z" fill="white"/>
<path d="M26.2592 27.4425L26.1761 27.7026H25.9033L26.1246 27.8625L26.0397 28.1208L26.2592 27.9619L26.4814 28.1208L26.3965 27.8634L26.6178 27.7026H26.3441L26.2592 27.4425Z" fill="white"/>
<path d="M26.3141 28.7849L26.2455 28.5771L26.1795 28.7849H25.9609L26.1371 28.9122L26.0684 29.1191L26.2455 28.9908L26.4225 29.1191L26.3556 28.9113L26.5318 28.7849H26.3141Z" fill="white"/>
<path d="M27.3709 26.8953L27.304 26.6903L27.2372 26.8953H27.0195L27.1975 27.0263L27.1297 27.2331L27.305 27.104L27.4802 27.2331L27.4124 27.0263L27.5904 26.8953H27.3709Z" fill="white"/>
<path d="M28.2318 26.3443L28.1469 26.0859L28.0638 26.3443H27.791L28.0123 26.5041L27.9274 26.7616L28.1478 26.6017L28.3691 26.7616L28.2833 26.5041L28.5028 26.3443H28.2318Z" fill="white"/>
<path d="M26.1087 26.8239L26.0401 27.0344L26.2162 26.9043L26.3933 27.0344L26.3255 26.8248L26.5035 26.6975H26.2849L26.2171 26.4897L26.1503 26.6975H25.9326L26.1087 26.8239Z" fill="white"/>
<path d="M17.0804 21.3115L16.9955 21.0541L16.9124 21.3115H16.6396L16.86 21.4732L16.7751 21.7324L16.9964 21.5725L17.215 21.7324L17.1319 21.4741L17.3532 21.3115H17.0804Z" fill="white"/>
<path d="M23.8588 20.5844L24.0358 20.7144L23.9681 20.5058L24.1433 20.3775H23.9275L23.8597 20.1698L23.7911 20.3775H23.5752L23.7486 20.5049L23.6827 20.7144L23.8588 20.5844Z" fill="white"/>
<path d="M21.1007 25.5773L20.9987 25.2639L20.8975 25.5773H20.5732L20.8361 25.7697L20.7358 26.0813L20.9996 25.888L21.2633 26.0813L21.163 25.7715L21.4277 25.5773H21.1007Z" fill="white"/>
<path d="M22.2992 23.5135L22.2161 23.2561L22.1312 23.5135H21.8584L22.0788 23.6743L21.9939 23.9344L22.2143 23.7727L22.4338 23.9344L22.3498 23.6734L22.5719 23.5135H22.2992Z" fill="white"/>
<path d="M20.8629 22.7304L20.778 22.9906L20.9993 22.8307L21.2206 22.9906L21.1348 22.7304L21.3561 22.5706H21.0824L20.9984 22.3123L20.9153 22.5706H20.6416L20.8629 22.7304Z" fill="white"/>
<path d="M20.0075 23.5351L19.9425 23.3301L19.8757 23.5351H19.6553L19.8332 23.6652L19.7655 23.872L19.9416 23.7456L20.1168 23.872L20.0509 23.6643L20.2261 23.5351H20.0075Z" fill="white"/>
<path d="M20.4698 24.4421L20.5963 24.5333L20.5466 24.3843L20.6731 24.2922H20.5186L20.4698 24.144L20.4211 24.2922H20.2666L20.3921 24.3843L20.3434 24.5333L20.4698 24.4421Z" fill="white"/>
<path d="M24.2279 27.9583L24.1457 27.7009L24.0608 27.9583H23.7871L24.0066 28.1191L23.9235 28.3793L24.1439 28.2194L24.3652 28.3793L24.2812 28.12L24.5016 27.9583H24.2279Z" fill="white"/>
<path d="M25.112 27.0561L25.0443 26.8484L24.9783 27.0561H24.7598L24.9359 27.1826L24.87 27.3876L25.0452 27.2612L25.2213 27.3876L25.1554 27.1826L25.3306 27.0561H25.112Z" fill="white"/>
<path d="M23.3825 26.795L23.3166 26.59L23.2498 26.795H23.0303L23.2055 26.9242L23.1378 27.1319L23.3148 27.0036L23.4936 27.1319L23.425 26.9233L23.6011 26.795H23.3825Z" fill="white"/>
<path d="M16.8836 26.4373L16.7807 26.1239L16.6804 26.4373H16.3525L16.6181 26.6279L16.5178 26.9386L16.7816 26.7453L17.048 26.9386L16.9469 26.627L17.2106 26.4373H16.8836Z" fill="white"/>
<path d="M21.0326 29.1741L20.9983 29.0693L20.9649 29.1741H20.8574L20.945 29.2382L20.9116 29.3412L20.9992 29.2771L21.0859 29.3412L21.0534 29.2382L21.141 29.1741H21.0326Z" fill="white"/>
</g>
</g>
<defs>
<clipPath id="clip0_119_571">
<rect width="42" height="42" fill="white"/>
</clipPath>
</defs>
</svg>
