<svg width="42" height="42" viewBox="0 0 42 42" fill="none" xmlns="http://www.w3.org/2000/svg">
<g clip-path="url(#clip0_1_668)">
<path d="M22.6517 0L25.0457 0.351986C33.6595 2.00151 40.5472 9.1571 41.8131 17.854C41.8798 18.312 41.8655 18.828 42 19.2663V22.7096C41.8655 23.148 41.8809 23.6639 41.8131 24.122C40.5308 32.8309 33.677 39.9646 25.0457 41.624L22.6517 41.976H19.3723L16.1739 41.4447C7.99402 39.5295 1.702 32.8123 0.296241 24.5286L0.0240536 22.7096C0.0798029 21.5826 -0.0513719 20.3846 0.0240536 19.2663C0.0940135 18.2377 0.333408 17.0888 0.571709 16.0831C0.77175 15.2392 1.38609 13.9209 1.48556 13.2181C1.51398 13.0125 1.40467 12.8081 1.41779 12.7906C1.42872 12.7764 1.64406 12.783 1.75119 12.6496C1.9403 12.4146 2.26496 11.4712 2.47046 11.0952C5.81761 4.93545 12.2922 0.472229 19.3723 0H22.6517ZM28.2266 2.78856C24.5494 1.4309 20.5092 1.04612 16.6636 1.9239C16.3925 1.98621 15.3595 2.23435 15.1901 2.33601C15.0348 2.42892 15.1715 2.46499 15.2447 2.52949C15.8831 3.09791 18.7274 3.17552 19.72 3.4652C20.0173 3.55156 20.2906 3.75488 20.3419 4.07954C20.3868 4.35828 19.6872 6.45599 19.4904 6.71834C19.1111 7.22445 17.8278 7.3294 17.2615 7.64531C16.6024 8.54167 16.0033 10.1726 15.2775 10.9487C15.002 11.2439 11.6549 13.2476 11.2778 13.3438C10.776 13.4859 7.22227 13.7854 7.08454 13.9461C7.04737 13.9909 7.05721 14.99 7.09219 15.1092C7.17745 15.3956 8.18641 16.082 8.36896 16.4559C8.55151 16.8297 8.43564 17.3665 8.47062 17.7895C9.05653 17.3041 9.78237 16.1695 10.506 17.1883C10.7454 17.5261 11.5674 19.509 11.68 19.58L16.4264 19.6303C16.5794 19.6784 16.6428 19.7812 16.7368 19.8938C17.1074 20.3365 18.4027 22.8845 18.6345 22.9971C19.4642 23.2497 21.8013 22.4943 21.7444 23.8858C21.7302 24.2389 21.0885 27.386 20.965 27.6221L18.2672 30.3353C18.0846 30.9376 18.4224 32.1313 18.0989 32.6265L15.436 34.6553C15.3311 35.6544 15.5825 36.9509 15.4327 37.9128C15.3813 38.2407 15.0501 38.4889 14.7288 38.5064C14.4303 38.5228 12.2178 37.7576 12.0462 37.5291L10.5257 33.7294L10.4831 27.2133C10.3191 26.9859 7.63985 26.8668 7.16871 26.3465C6.91073 26.0612 5.64052 23.4475 5.59898 23.0791C5.55307 22.6758 5.53668 21.1541 5.61647 20.8011C5.68971 20.4764 6.5828 19.7987 6.5817 19.7178L3.01265 17.3031C2.67488 16.7991 2.59399 16.1367 2.35897 15.577C2.32617 15.4983 2.35131 15.389 2.23763 15.413C0.150856 22.7654 2.40378 30.696 8.13831 35.7047C16.2198 42.763 28.8486 41.9913 35.8107 33.7786C35.92 33.6496 36.5639 32.8779 36.5803 32.8189C36.6109 32.7052 36.5672 32.668 36.5114 32.5849C36.2086 32.1335 35.1527 31.4568 35.0029 30.9769C34.7679 30.2216 35.0805 28.9164 34.9297 28.0987C34.4017 26.4547 32.5959 24.1843 32.2165 22.6135C32.022 21.81 32.2592 20.7694 32.1433 19.9397C31.7334 19.8074 31.013 19.0608 30.637 19.0214C29.9046 18.946 28.548 19.7866 27.7282 19.5582C26.2842 18.7667 24.2138 18.2945 22.8386 17.479C22.6419 17.3621 22.4856 17.22 22.4254 16.9904L21.681 11.7861C21.7368 11.6057 21.8373 11.4592 21.951 11.3116C22.139 11.0679 24.0509 9.18333 24.2029 9.13633L28.9864 9.11665C29.6532 9.65556 29.9964 10.5191 30.5244 11.1859C31.5946 11.2799 33.4616 11.9478 34.4585 11.7686C35.4555 11.5893 36.6087 10.8952 37.6516 10.7388L35.5615 7.95903C34.9253 8.3296 34.1962 9.12868 33.4288 9.10463C32.6614 9.08058 31.001 8.66738 30.2063 8.46952C29.6269 8.32632 28.4606 7.82349 28.0091 7.79069C27.3095 7.74041 25.954 8.44875 25.2304 8.44438C25.0194 8.44329 22.7457 7.67045 22.6058 7.54365C22.3762 7.33705 22.3533 6.99927 22.4418 6.71834L24.0378 3.6412C24.5417 3.20723 26.4372 3.57561 27.1805 3.42257C27.3106 3.39634 27.9829 3.05637 28.1184 2.96892C28.1982 2.91755 28.2649 2.97767 28.2245 2.78637L28.2266 2.78856ZM18.6345 4.75509C17.6124 4.52881 16.246 4.52444 15.272 4.22274C14.7943 4.07517 13.6028 3.05091 13.3492 3.03888C13.0672 3.02577 11.3401 3.98334 10.9848 4.1965C8.12191 5.91052 5.50716 8.61163 3.89371 11.5346C3.61715 12.0364 3.07933 12.9043 3.17662 13.4487C3.23128 13.7537 4.03363 16.1334 4.1659 16.3127L6.99162 18.2005C6.94571 17.878 7.07907 17.338 6.95009 17.0538C6.78284 16.6854 5.71704 16.0492 5.61647 15.6C5.53668 15.248 5.54979 13.6389 5.5968 13.2377C5.6438 12.8366 5.86133 12.6671 6.23628 12.5655C7.63657 12.1829 9.68399 12.314 11.0078 11.844C11.9894 11.4953 13.1339 10.4109 14.1461 10.0032L16.2548 6.51502C16.6581 6.08651 17.9906 6.00234 18.3055 5.69627C18.3689 5.63396 18.6717 4.78788 18.6334 4.75509H18.6345ZM24.2094 6.63963C24.5592 6.63089 24.9582 6.93806 25.285 6.92603C26.0502 6.89652 27.315 6.22753 28.0747 6.27672C28.607 6.3106 29.6444 6.80251 30.2413 6.96211C31.2644 7.23648 32.3237 7.37312 33.3545 7.61361L34.4564 6.92494C34.5427 6.57186 30.7201 3.84889 30.0642 3.68929C29.6258 3.66087 28.0747 4.7846 27.5096 4.90047C27.0483 4.99448 25.1353 4.82177 24.9582 4.93217C24.9046 5.20436 24.0946 6.51065 24.2072 6.63963H24.2094ZM23.8214 16.2941L28.0408 18.1021C28.7929 18.0846 30.2905 17.3522 30.954 17.4801C31.1518 17.5184 33.3359 18.9635 33.4758 19.1428C33.5884 19.286 33.619 19.3712 33.6398 19.5527C33.7404 20.4152 33.5294 21.4263 33.677 22.303C34.2137 23.9165 35.9955 26.1792 36.3693 27.7271C36.5661 28.5404 36.3256 29.5996 36.4426 30.4413L37.492 31.4448C40.7812 26.4361 41.4206 19.9364 39.3787 14.3057C39.253 13.9603 38.608 12.2976 38.4342 12.1326C38.361 12.0637 38.3129 12.032 38.209 12.0648L34.5045 13.2946C32.9314 13.1874 31.3617 12.8355 29.8062 12.5622C29.1241 12.0287 28.8311 11.1422 28.254 10.5071L24.8412 10.5104C24.7046 10.5508 23.2529 12.0419 23.2267 12.1763L23.8203 16.293L23.8214 16.2941ZM13.9614 36.729V34.2279C13.9614 34.1765 14.1756 33.7896 14.2358 33.7229L16.7303 31.8733C16.8407 31.2076 16.5827 30.3069 16.8964 29.7013C17.3184 28.8858 19.0433 27.7632 19.6085 26.9204L20.1102 24.5122H18.0201C17.9261 24.5122 17.6124 24.1952 17.5337 24.0968C17.1828 23.6574 15.9093 21.1366 15.6841 21.0273L10.9247 20.9497C10.5148 20.8218 9.91682 19.2084 9.6982 18.7733L9.49378 18.8542C9.17241 19.3505 7.20806 20.9027 7.09328 21.2908C7.03426 21.4908 7.04737 22.7435 7.09547 22.9775C7.12389 23.1185 8.09787 25.0806 8.18641 25.1659C8.46843 25.4392 10.8219 25.6655 11.4078 25.8797C11.6166 25.9562 11.7893 26.0929 11.8976 26.2918L11.9194 33.3206L13.1383 36.4273L13.9647 36.7279L13.9614 36.729Z" fill="black"/>
</g>
<defs>
<clipPath id="clip0_1_668">
<rect width="42" height="41.976" fill="black"/>
</clipPath>
</defs>
</svg>
