<svg width="275" height="57" viewBox="0 0 275 57" fill="none" xmlns="http://www.w3.org/2000/svg">
<g clip-path="url(#clip0_260_414)">
<path d="M28.1383 0.118851C33.3835 0.118851 37.0236 0.967177 39.0537 2.66854C41.0838 4.36991 42.1036 7.78207 42.1036 12.9144C42.1036 17.7688 41.3152 21.1951 39.7336 23.1886C38.152 25.1822 34.8424 26.1813 29.8096 26.1813H10.5755V34.8154H0V0.118851H28.1383ZM31.4195 13.2821C31.4195 11.3403 31.0041 10.0678 30.1684 9.45987C29.3328 8.8519 27.8739 8.55027 25.7919 8.55027H10.5755V17.7593H25.9477C27.9636 17.7593 29.38 17.4718 30.192 16.9016C31.0088 16.3313 31.4148 15.1248 31.4148 13.2868L31.4195 13.2821Z" fill="white"/>
<path d="M76.5386 0.118851H62.2617L56.1289 11.0953C56.6435 10.9256 57.1723 10.8031 57.7011 10.7088C58.3479 10.591 59.023 10.5344 59.6887 10.5344C59.8728 10.5344 60.0569 10.5438 60.2458 10.5533C61.0862 10.5957 61.936 10.7229 62.7527 10.9397C63.5931 11.1659 64.391 11.477 65.1322 11.854C65.543 12.0708 65.949 12.3159 66.3267 12.5751L69.3719 6.77822L76.8833 21.3412H71.0384C71.1376 23.2216 70.7788 25.0549 69.995 26.6809C69.6834 27.336 69.3058 27.9487 68.8572 28.5189H80.5847L83.8565 34.8107H95.4895L76.5386 0.118851Z" fill="white"/>
<path d="M132.447 26.1295V34.8154H97.8496V0.118851H108.425V26.1248H132.447V26.1295Z" fill="white"/>
<path d="M162.561 0.118851C167.806 0.118851 171.441 0.967177 173.476 2.66854C175.511 4.36991 176.526 7.78207 176.526 12.9144C176.526 17.7688 175.737 21.1951 174.156 23.1886C172.574 25.1822 169.269 26.1813 164.232 26.1813H145.007V34.8154H134.432V0.118851H162.57H162.561ZM165.846 13.2821C165.846 11.3403 165.431 10.0678 164.595 9.45987C163.76 8.8519 162.301 8.55027 160.219 8.55027H145.007V17.7593H160.375C162.391 17.7593 163.802 17.4718 164.619 16.9016C165.436 16.3313 165.846 15.1248 165.846 13.2868V13.2821Z" fill="white"/>
<path d="M180.066 34.8154V0.118851H190.642V34.8107H180.066V34.8154Z" fill="white"/>
<path d="M208.155 34.8154V8.80949H192.627V0.118851H234.207V8.80477H218.73V34.8107H208.155V34.8154Z" fill="white"/>
<path d="M275 0.118851V8.02714H246.81V13.956H273.121V20.8227H246.81V26.959H275V34.8107H236.234V0.118851H275Z" fill="white"/>
<path d="M9.06956 43.3364V45.0755H3.53632V48.9118H7.84677V50.6509H3.53632V56.3394H1.40234V43.3364H9.06956Z" fill="white"/>
<path d="M24.4164 43.3364V51.6264C24.4164 52.6114 24.676 53.3561 25.1954 53.8509C25.7147 54.3505 26.437 54.6003 27.3624 54.6003C28.2877 54.6003 29.029 54.3505 29.5483 53.8509C30.0676 53.3514 30.3273 52.6114 30.3273 51.6264V43.3364H32.466V51.5887C32.466 52.6491 32.2347 53.5493 31.772 54.2845C31.3093 55.0197 30.6908 55.5712 29.9166 55.9293C29.1423 56.2875 28.2877 56.4713 27.3482 56.4713C26.4087 56.4713 25.5589 56.2922 24.7893 55.9293C24.0198 55.5664 23.4108 55.0197 22.9622 54.2845C22.5137 53.5493 22.2871 52.6491 22.2871 51.5887V43.3364H24.4258H24.4164Z" fill="white"/>
<path d="M54.8949 43.3364V45.0755H51.4296V56.3394H49.2909V45.0755H45.8066V43.3364H54.8949Z" fill="white"/>
<path d="M70.4317 45.0566V48.8741H74.931V50.6132H70.4317V54.6003H75.4928V56.3394H68.293V43.3176H75.4928V45.0566H70.4317Z" fill="white"/>
<path d="M98.1183 50.764C98.6046 51.3766 98.8501 52.0695 98.8501 52.8424C98.8501 53.5022 98.6801 54.1007 98.3355 54.6286C97.9909 55.1611 97.4951 55.5759 96.8436 55.8822C96.1921 56.1885 95.4367 56.3394 94.5774 56.3394H89.3652V43.3364H94.3319C95.2195 43.3364 95.9796 43.4872 96.617 43.7841C97.2543 44.0858 97.7359 44.4864 98.0617 44.9906C98.3874 45.4949 98.548 46.0605 98.548 46.6826C98.548 47.4319 98.3497 48.054 97.9484 48.5536C97.5471 49.0532 97.0136 49.4208 96.3384 49.6564C97.0372 49.7837 97.632 50.1513 98.1183 50.7593V50.764ZM91.5039 48.8034H94.1478C94.8465 48.8034 95.3942 48.6432 95.7861 48.3274C96.1779 48.0116 96.3762 47.5498 96.3762 46.9512C96.3762 46.3527 96.1779 45.9049 95.7861 45.575C95.3942 45.2451 94.8465 45.0802 94.1478 45.0802H91.5039V48.8034ZM96.0929 54.0772C96.5037 53.7284 96.7114 53.243 96.7114 52.6161C96.7114 51.9893 96.4942 51.4756 96.0552 51.0986C95.6161 50.7263 95.0354 50.5377 94.313 50.5377H91.5039V54.5956H94.3886C95.1109 54.5956 95.6822 54.4212 96.0929 54.0724V54.0772Z" fill="white"/>
<path d="M115.015 55.623C113.995 55.0574 113.192 54.2609 112.597 53.2477C112.003 52.2297 111.705 51.0844 111.705 49.8167C111.705 48.5489 112.003 47.4036 112.597 46.3904C113.192 45.3818 113.995 44.59 115.015 44.0245C116.034 43.4589 117.149 43.1714 118.362 43.1714C119.575 43.1714 120.708 43.4542 121.728 44.0245C122.748 44.59 123.551 45.3818 124.136 46.3904C124.721 47.3989 125.019 48.5395 125.019 49.8167C125.019 51.0939 124.726 52.2344 124.136 53.2477C123.551 54.2657 122.748 55.0574 121.728 55.623C120.708 56.1885 119.589 56.476 118.362 56.476C117.134 56.476 116.034 56.1932 115.015 55.623ZM120.666 54.03C121.341 53.6388 121.87 53.078 122.248 52.3475C122.625 51.617 122.819 50.7734 122.819 49.8119C122.819 48.8505 122.63 48.0116 122.248 47.2858C121.865 46.56 121.336 46.0086 120.666 45.6222C119.991 45.2357 119.221 45.0425 118.362 45.0425C117.503 45.0425 116.733 45.2357 116.058 45.6222C115.383 46.0086 114.854 46.5647 114.472 47.2858C114.089 48.0069 113.9 48.8505 113.9 49.8119C113.9 50.7734 114.089 51.617 114.472 52.3475C114.854 53.078 115.383 53.6388 116.058 54.03C116.733 54.4259 117.503 54.6191 118.362 54.6191C119.221 54.6191 119.991 54.4212 120.666 54.03Z" fill="white"/>
<path d="M140.494 54.6191H144.899V56.3394H138.355V43.3364H140.494V54.6191Z" fill="white"/>
<path d="M174.22 46.3856C174.815 45.3771 175.618 44.5853 176.638 44.0198C177.657 43.4542 178.772 43.1667 179.985 43.1667C181.373 43.1667 182.605 43.506 183.686 44.1847C184.768 44.8634 185.551 45.8295 186.038 47.0737H183.469C183.134 46.3904 182.662 45.8767 182.062 45.5373C181.463 45.198 180.769 45.033 179.98 45.033C179.116 45.033 178.351 45.2263 177.676 45.6127C177.001 45.9992 176.472 46.5553 176.09 47.2764C175.708 47.9975 175.519 48.8411 175.519 49.8025C175.519 50.764 175.708 51.6029 176.09 52.3286C176.472 53.0544 177.001 53.6106 177.676 54.0017C178.351 54.3929 179.121 54.5909 179.98 54.5909C180.769 54.5909 181.463 54.4212 182.062 54.0866C182.662 53.752 183.129 53.2382 183.469 52.5549H186.038C185.551 53.8038 184.768 54.7605 183.686 55.4345C182.605 56.1084 181.373 56.443 179.985 56.443C178.762 56.443 177.643 56.1603 176.628 55.59C175.613 55.0197 174.815 54.2327 174.22 53.2241C173.626 52.2155 173.328 51.0703 173.328 49.7978C173.328 48.5253 173.626 47.3848 174.22 46.3715V46.3856Z" fill="white"/>
<path d="M201.916 54.6191H206.321V56.3394H199.777V43.3364H201.916V54.6191Z" fill="white"/>
<path d="M221.467 43.3364V51.6264C221.467 52.6114 221.726 53.3561 222.246 53.8509C222.765 54.3505 223.483 54.6003 224.408 54.6003C225.333 54.6003 226.075 54.3505 226.594 53.8509C227.113 53.3514 227.373 52.6114 227.373 51.6264V43.3364H229.507V51.5887C229.507 52.6491 229.276 53.5493 228.813 54.2845C228.35 55.0197 227.732 55.5712 226.958 55.9293C226.183 56.2922 225.324 56.4713 224.389 56.4713C223.454 56.4713 222.6 56.2922 221.83 55.9293C221.061 55.5664 220.452 55.0197 220.003 54.2845C219.555 53.5493 219.328 52.6491 219.328 51.5887V43.3364H221.467Z" fill="white"/>
<path d="M252.282 50.764C252.769 51.3766 253.014 52.0695 253.014 52.8424C253.014 53.5022 252.844 54.1007 252.5 54.6286C252.155 55.1611 251.659 55.5759 251.008 55.8822C250.356 56.1885 249.601 56.3394 248.741 56.3394H243.529V43.3364H248.496C249.384 43.3364 250.144 43.4872 250.781 43.7841C251.418 44.0858 251.9 44.4864 252.226 44.9906C252.551 45.4949 252.712 46.0605 252.712 46.6826C252.712 47.4319 252.514 48.054 252.112 48.5536C251.711 49.0532 251.173 49.4208 250.502 49.6564C251.201 49.7837 251.796 50.1513 252.282 50.7593V50.764ZM245.663 48.8034H248.307C249.006 48.8034 249.554 48.6432 249.945 48.3274C250.337 48.0116 250.536 47.5498 250.536 46.9512C250.536 46.3527 250.337 45.9049 249.945 45.575C249.554 45.2451 249.006 45.0802 248.307 45.0802H245.663V48.8034ZM250.257 54.0772C250.668 53.7284 250.875 53.243 250.875 52.6161C250.875 51.9893 250.658 51.4756 250.219 51.0986C249.78 50.7263 249.199 50.5377 248.477 50.5377H245.668V54.5956H248.553C249.275 54.5956 249.846 54.4212 250.257 54.0724V54.0772Z" fill="white"/>
<path d="M268.719 45.0566V48.8741H273.218V50.6132H268.719V54.6003H273.78V56.3394H266.58V43.3176H273.78V45.0566H268.719Z" fill="white"/>
<path d="M63.4187 31.9782C62.9844 32.8878 62.4509 33.7173 61.8371 34.4714C59.6937 37.087 56.5447 38.779 53.1124 39.5566C51.0917 40.0138 48.9813 40.1505 46.9182 39.9761C47.1542 39.7499 47.4328 39.4529 47.7208 39.1042C49.0285 37.5065 50.4166 34.905 47.971 34.0001C47.2156 33.7173 46.3516 33.8351 45.6198 34.1745C44.822 34.5468 44.1563 35.1123 43.5944 35.7957C42.2064 37.4876 41.4746 39.896 41.0356 41.8565C40.7098 41.0318 39.6098 38.0108 40.8137 34.4667C41.1866 33.3638 41.7721 32.3694 42.4991 31.4787C42.8013 31.1063 43.1318 30.7529 43.4859 30.4183C44.4254 29.5228 45.5537 28.8866 46.5405 28.0618C46.734 27.9016 46.9182 27.7366 47.0976 27.5575C47.2203 27.435 47.3431 27.2983 47.4564 27.1616C47.5225 27.0815 47.5886 26.9967 47.6452 26.9118C48.2968 26.0117 48.6839 24.8806 48.4195 23.7872C48.207 22.8964 47.4139 22.2036 46.5357 21.8973C46.2336 21.7889 45.922 21.7323 45.6198 21.7276C45.549 21.7276 45.4782 21.7276 45.4074 21.7323C44.5623 21.7842 43.7219 22.2555 43.094 23.019C42.5038 23.74 42.1025 24.725 42.0695 25.8656C42.0884 25.3189 41.7296 24.6638 41.7154 24.0747C41.6776 22.8304 42.1498 21.6287 42.9335 20.6719C43.297 20.2289 43.7314 19.833 44.2082 19.5173C44.2696 19.4748 44.3357 19.4371 44.397 19.3947C45.0911 18.9706 45.7851 18.7161 46.5357 18.6736C46.8568 18.6501 47.1825 18.6736 47.5225 18.7255C48.0654 18.815 48.6839 19.013 49.2929 19.0931C49.0663 19.965 48.9436 20.8793 48.9436 21.8172C48.9436 26.0022 51.3278 29.6265 54.812 31.4174C56.2944 32.1809 57.9752 32.6098 59.7551 32.6098C61.0392 32.6098 62.2715 32.3883 63.414 31.9735L63.4187 31.9782Z" fill="#00FF55"/>
<path d="M69.3253 20.8416C69.0893 18.5794 68.0884 16.3879 66.4359 14.8137C66.3462 14.7289 66.2565 14.6441 66.1621 14.564C65.6145 14.088 65.0101 13.6779 64.3633 13.3433C63.7165 13.0087 63.032 12.7448 62.3285 12.5563C61.625 12.3677 60.898 12.2593 60.1709 12.2216C59.4439 12.1886 58.7121 12.2311 57.9945 12.3536C57.2768 12.4761 56.5781 12.6835 55.9077 12.9663C55.2467 13.2491 54.6235 13.612 54.0523 14.0455C53.481 14.4744 52.9617 14.974 52.5037 15.5207C52.041 16.0674 51.6397 16.6706 51.3045 17.3022C50.9693 17.9337 50.7002 18.6029 50.5066 19.2957C50.3131 19.9838 50.1903 20.6908 50.1526 21.4071C50.1148 22.1188 50.1526 22.8351 50.2847 23.5327C51.0165 27.5009 54.4961 30.8047 58.5043 31.3373C62.5126 31.8698 66.7381 29.5888 68.4849 25.9457C69.2451 24.3621 69.5094 22.5759 69.3253 20.8322V20.8416ZM58.8962 13.0134C60.4542 12.8579 61.9603 13.1218 63.2964 13.7062C63.0603 13.8052 62.7723 13.9277 62.4135 14.088L58.561 13.5978L57.9095 13.1736C58.2305 13.103 58.561 13.0464 58.8962 13.0181V13.0134ZM58.3863 14.4838L58.443 14.3943L62.3049 14.8797L63.2964 17.2503L62.0972 18.5652L61.8517 18.8339L58.2636 18.5511L57.1069 16.5387L58.3863 14.4838ZM53.6274 17.83L53.8776 17.2173L56.4223 16.9628L57.5412 18.9093L56.1107 22.3497L55.5961 22.4251L53.9106 22.6702L52.4754 20.7143L53.6368 17.8347L53.6274 17.83ZM50.974 20.9406C51.144 19.1732 51.8522 17.5378 52.9381 16.2088C52.99 16.1428 53.0466 16.0768 53.0986 16.0155V16.6047L53.108 16.9628L51.8239 20.1582L50.974 20.9453V20.9406ZM52.2582 26.4452L53.0089 26.6149L55.733 28.9855L55.9407 29.7537C54.43 29.0279 53.1458 27.8733 52.2582 26.45V26.4452ZM58.6696 27.5858L57.9048 27.845L56.2948 28.3964L53.481 25.9504L54.0523 23.462L55.9171 23.1933L56.3137 23.1368L59.0284 25.4555L58.6649 27.5858H58.6696ZM59.4722 27.6942L59.8263 25.5969L62.8903 23.7259L63.1358 23.8249L64.3445 24.3197L64.9299 24.5601L65.0385 27.1333L64.6041 27.3831L61.6345 29.0751L61.0255 28.6886L59.4675 27.6942H59.4722ZM64.3256 29.3673C63.4899 29.8668 62.5646 30.2392 61.5684 30.4418L62.0311 29.782L64.5097 28.3681L65.4681 27.8214L66.3132 27.7413C65.7325 28.3728 65.0621 28.9242 64.3208 29.372L64.3256 29.3673ZM65.2037 23.806L64.1226 23.363L63.4522 23.0849L63.3436 23.0425L62.4654 19.3664L62.5221 19.3052L63.9054 17.7876L65.5531 18.2353L66.3982 18.4663L67.2386 22.0151L65.2037 23.8013V23.806ZM68.5841 22.5806L68.0553 21.9491L67.2102 18.3861L67.4793 17.4624C68.0648 18.4945 68.4519 19.6586 68.5746 20.9123C68.6313 21.4778 68.6313 22.0292 68.5841 22.5759V22.5806Z" fill="#00FF55"/>
</g>
<defs>
<clipPath id="clip0_260_414">
<rect width="275" height="56.3525" fill="white" transform="translate(0 0.118851)"/>
</clipPath>
</defs>
</svg>
