<svg width="244" height="124" xmlns="http://www.w3.org/2000/svg" version="1.1">

 <g>
  <title>Layer 1</title>
  <path id="svg_1" d="m148.16,112.72q0.09,-0.26 0.36,-0.32c8.39,-1.78 17.81,-4.4 25,-6.62c18.38,-5.69 36.91,-16.17 49.24,-31.22c10.45,-12.76 14.65,-31.82 6.45,-46.64c-6.29,-11.37 -17.42,-17.27 -30.26,-17.36q-3.84,-0.02 -11.8,1.08q-25.86,3.6 -44.15,3.56q-23.08,-0.05 -36.52,0.15q-10.98,0.16 -34.92,-1.88q-9.68,-0.83 -42.07,-4.12q-0.41,-0.04 -0.28,-0.43l0.15,-0.48q0.16,-0.49 0.68,-0.45q14.21,1.01 28.03,1.9q9.67,0.62 53.2,0.83q7.04,0.03 27.73,-0.94q25.84,-1.21 50.33,-5.12q9.27,-1.48 13.82,-1.07q8.18,0.72 13.72,3.17c20.82,9.21 28.35,31.13 21.49,52.37c-3.93,12.14 -11.59,21.78 -21.3,30.1q-6.75,5.77 -13.63,9.89q-25.93,15.53 -57.27,20.89a0.2,0.18 -84.4 0 1 -0.19,-0.26l2.19,-7.03z" fill="#ffffff"/>
  <path id="svg_2" d="m220.372,24.2649a40.47,33.92 -42.7 0 1 -6.7388,52.3734a40.47,33.92 -42.7 0 1 -52.7452,2.5168a40.47,33.92 -42.7 0 1 6.7388,-52.3734a40.47,33.92 -42.7 0 1 52.7452,-2.5168zm-36.962,0.9151q1.62,-1.3 1.82,-2.95q0.09,-0.76 -0.61,-0.46q-10.86,4.64 -17.3,12.29q-6.62,7.87 -8.48,17.98q-2.04,11.08 4.69,21.46q0.7,1.07 1.76,0.36q0.17,-0.11 0.6,-0.4q0.44,-0.28 0.75,-0.3q2.91,-0.21 5.83,0.43a1.41,1.4 83.7 0 0 1.57,-1.97q-1.89,-4.07 -0.39,-8.35c0.54,-1.52 1.79,-2.9 2.61,-4.01a1.32,1.32 0 0 0 -1.12,-2.1q-5.19,0.24 -7.72,-3.66q-2.94,-4.54 -1.09,-10.87q2.51,-8.62 10.86,-11.15q3.71,-1.12 4.21,-1.29a2.25,2.24 81.1 0 0 1.55,-2.14l0,-1.91q0,-0.59 0.46,-0.96zm29.89,0.91q0.49,-0.23 0.06,-0.56q-2.74,-2.11 -6.54,-3.77a0.22,0.22 0 0 0 -0.24,0.36q1.94,1.98 3.23,4.58a1.09,0.52 -5.2 0 0 0.9,0.33q0.52,0 2.59,-0.94zm-4.62,12.55q-0.41,-2.8 0.12,-7.07q0.13,-1.05 -0.99,-0.98a1.02,0.99 20.3 0 0 -0.66,0.29c-2.5,2.47 -5.41,4.49 -8.96,4.85c-2.1,0.21 -4.87,-0.7 -7.52,-1.23a1.19,1.19 0 0 0 -1.31,1.68c3.14,6.54 0.13,11.57 -4.32,16.35c-0.32,0.35 -0.44,1.01 -0.29,1.42a1.08,1.02 -11.4 0 0 1.08,0.68c2.63,-0.21 7.84,0.13 9.77,1.81q2.18,1.91 2.81,3.71q1.4,4.05 3.45,0.29c2.68,-4.93 4.4,-8.78 9.11,-10.02q4.01,-1.05 4.71,-1.31a1.02,1.02 0 0 0 0.27,-1.77c-2.46,-1.89 -6.83,-5.62 -7.27,-8.7zm12.67,17.54q1.42,-4.54 1.73,-9.96q0.07,-1.12 -0.62,-0.24l-2.09,2.65a2.06,2.04 -36.4 0 0 -0.31,2.01q0.73,1.92 0.93,5.5q0.06,1.01 0.36,0.04zm-12.48,17.69c-3.86,0.29 -6.38,0.22 -8.18,-2.75a1.29,1.29 0 0 0 -2.2,0q-3.45,5.71 -10.81,6.48q-1.91,0.2 -4.59,0.17q-2.66,-0.03 -0.7,1.77q1.68,1.55 3.26,3.41q0.27,0.32 0.69,0.33q1.84,0.05 2.66,-0.07q11.39,-1.66 20.01,-9.01q0.42,-0.37 -0.14,-0.33z" fill="#ffffff"/>
  <path id="svg_3" d="m29.87,38.46q-1.07,2.81 -1.23,4.01q-0.18,1.41 -1.6,1.41l-6.05,0q-1.46,0 -1.01,-1.39l6.8,-21.22a1.26,1.25 6 0 1 1.08,-0.87q6.08,-0.55 10.11,-0.14q3.98,0.4 6.29,2.93q1.93,2.11 0.99,5.42c-1.9,6.78 -8.02,9.31 -14.68,9.36q-0.52,0 -0.7,0.49zm2.1,-7.54a0.27,0.27 0 0 0 0.22,0.35q2.97,0.48 4.39,-2q0.8,-1.4 -1.35,-2.38a1.67,1.66 21.2 0 0 -2.29,1l-0.97,3.03z" fill="#ffffff"/>
  <path id="svg_4" d="m91,38.41l-1.48,4.61q-0.26,0.82 -1.13,0.82l-6.75,0q-0.86,0 -0.6,-0.81l7.04,-21.96a1,0.99 6.2 0 1 0.86,-0.69q5.04,-0.47 9.37,-0.24c4.42,0.25 9.52,2.58 8.22,8.03q-1.71,7.14 -9.51,9.14q-2.45,0.63 -5.35,0.61q-0.51,0 -0.67,0.49zm3.27,-10.74l-0.97,3.03q-0.2,0.62 0.45,0.63q3.09,0.08 4.17,-2.31q0.51,-1.12 -0.52,-1.78q-0.71,-0.46 -1.9,-0.47q-0.94,0 -1.23,0.9z" fill="#ffffff"/>
  <path id="svg_5" d="m63.57,41.06q2.93,-8.55 6.49,-20.24a0.69,0.69 0 0 1 0.66,-0.49l7.73,0q0.45,0 0.31,0.43l-4.95,15.45a0.68,0.67 -81.1 0 0 0.64,0.88l7.06,0a0.19,0.18 9 0 1 0.18,0.24l-1.98,6.18q-0.11,0.33 -0.45,0.33l-24.1,0a1.02,1.01 -81.1 0 1 -0.96,-1.33l0.61,-1.89a0.6,0.6 0 0 0 -0.57,-0.78l-5.39,0q-0.34,0 -0.53,0.29l-1.85,2.85q-0.55,0.85 -1.57,0.85l-6.22,0a0.7,0.7 0 0 1 -0.59,-1.08l14.41,-22.21q0.16,-0.24 0.45,-0.24l8.58,0q1.45,0 1.41,1.45q-0.34,11.03 0.06,19.23q0.07,1.53 0.57,0.08zm-8.39,-12.33q0,-0.44 -0.27,-0.09q-1.16,1.58 -2.94,5.02q-0.27,0.51 0.31,0.51l2.21,0q0.69,0 0.69,-0.68l0,-4.76z" fill="#ffffff"/>
  <path id="svg_6" d="m118.8,20.91l-7.1,22.46a0.54,0.54 0 0 1 -0.51,0.37l-7.53,0.1a0.54,0.54 0 0 1 -0.52,-0.7l7.12,-22.47a0.54,0.54 0 0 1 0.51,-0.37l7.51,-0.09a0.54,0.54 0 0 1 0.52,0.7z" fill="#ffffff"/>
  <path id="svg_7" d="m123.42,27.15l-4.76,0.3a0.57,0.57 0 0 1 -0.58,-0.74l1.88,-6a0.57,0.57 0 0 1 0.55,-0.4l19.87,0.02a0.57,0.57 0 0 1 0.54,0.74l-1.94,5.98a0.57,0.57 0 0 1 -0.56,0.4l-5.24,-0.14a0.57,0.57 0 0 0 -0.56,0.4l-4.93,15.68a0.57,0.57 0 0 1 -0.55,0.4l-7.5,0.01a0.57,0.57 0 0 1 -0.54,-0.75l4.9,-15.15a0.57,0.57 0 0 0 -0.58,-0.75z" fill="#ffffff"/>
  <path id="svg_8" d="m145.91,37.14l8.47,-0.07a0.41,0.41 0 0 1 0.38,0.57l-2.57,5.94a0.41,0.41 0 0 1 -0.38,0.25l-16.41,-0.01a0.41,0.41 0 0 1 -0.39,-0.53l7.23,-22.57a0.41,0.41 0 0 1 0.39,-0.28l17.34,-0.16a0.41,0.41 0 0 1 0.39,0.53l-1.88,6.03a0.41,0.41 0 0 1 -0.39,0.29l-9.28,0.06a0.41,0.41 0 0 0 -0.36,0.22l-0.56,1.04a0.41,0.41 0 0 0 0.37,0.61l7.74,-0.05a0.41,0.41 0 0 1 0.4,0.54l-1.64,5.09a0.41,0.41 0 0 1 -0.39,0.28l-8.18,0.06a0.41,0.41 0 0 0 -0.4,0.32l-0.28,1.34a0.41,0.41 0 0 0 0.4,0.5z" fill="#ffffff"/>
  <path id="svg_9" d="m190.18,50.7q4.38,-5.59 3.47,-11.16q-0.49,-2.98 1.16,-0.45q0.61,0.94 0.86,3.08c0.44,3.77 -2.46,7.67 -5.4,9.47q-0.85,0.52 -0.46,-0.39q0.07,-0.16 0.37,-0.55z" fill="#ffffff"/>
  <path id="svg_10" d="m107.92,57.78l0.43,0.29q0.42,0.27 0.52,0.75q1.63,7.74 -5.96,9.75q-7.82,2.07 -15.74,0.33q-0.57,-0.12 -0.39,-0.67l6.62,-20.68a2.4,2.39 2.6 0 1 1.76,-1.6q5.44,-1.23 11.55,-0.05q2.47,0.48 3.79,1.72q2,1.9 1.09,4.43q-1.04,2.83 -3.71,4.97q-0.51,0.41 0.04,0.76zm-8.47,-3.19q-0.06,0.35 0.29,0.4q2.72,0.43 4.12,-2.12a0.78,0.78 0 0 0 -0.45,-1.13l-1.64,-0.52q-1.07,-0.35 -1.56,0.66q-0.41,0.86 -0.76,2.71zm-2.73,8.36q-0.05,0.17 0.12,0.21q3.79,0.95 5.01,-1.95q0.22,-0.52 -0.23,-0.85q-1.5,-1.13 -3.34,-0.74a0.92,0.92 0 0 0 -0.69,0.63l-0.87,2.7z" fill="#ffffff"/>
  <path id="svg_11" d="m134.67,48.26q2.11,2.58 1.53,6.53q-1.05,7.15 -5.93,11.15q-4.89,4 -12.11,3.61q-3.98,-0.21 -6.1,-2.8q-2.11,-2.58 -1.53,-6.53q1.05,-7.15 5.93,-11.15q4.89,-4 12.11,-3.61q3.98,0.21 6.1,2.8zm-14.1752,14.2109a5.74,3.68 119.6 0 0 6.0349,-3.1732a5.74,3.68 119.6 0 0 -0.3645,-6.8086a5.74,3.68 119.6 0 0 -6.0349,3.1732a5.74,3.68 119.6 0 0 0.3645,6.8086z" fill="#ffffff"/>
  <path id="svg_12" d="m16.41,55.21l6.61,-0.05a0.5,0.5 0 0 1 0.48,0.65l-1.95,5.98a0.5,0.5 0 0 1 -0.47,0.35l-6.83,-0.03a0.5,0.5 0 0 0 -0.48,0.34l-2.1,6.12a0.5,0.5 0 0 1 -0.47,0.33l-7.35,0.06a0.5,0.5 0 0 1 -0.48,-0.66l6.9,-21.92a0.5,0.5 0 0 1 0.48,-0.35l16.36,0.02a0.5,0.5 0 0 1 0.48,0.66l-1.98,5.82a0.5,0.5 0 0 1 -0.48,0.34l-7.86,-0.09a0.5,0.5 0 0 0 -0.43,0.24l-0.86,1.43a0.5,0.5 0 0 0 0.43,0.76z" fill="#ffffff"/>
  <path id="svg_13" d="m33.11,60.64q-0.57,1.84 1.34,1.77q0.17,0 0.26,-0.01q1.82,-0.08 2.39,-1.85l4.57,-14.27q0.08,-0.25 0.35,-0.25l7.95,0q0.32,0 0.23,0.3q-3.83,12.48 -4.06,13.28q-1.99,6.84 -8.35,9.11q-6.06,2.17 -10.93,-0.29q-3.91,-1.98 -2.39,-7.52q1.86,-6.77 4.64,-14.6a0.41,0.4 8.7 0 1 0.39,-0.28l7.86,0a0.24,0.23 -80.9 0 1 0.22,0.31l-4.47,14.3z" fill="#ffffff"/>
  <path id="svg_14" d="m54.83,52.82l-5.22,-0.06a0.37,0.37 0 0 1 -0.35,-0.49l2.02,-5.99a0.37,0.37 0 0 1 0.35,-0.25l20.14,-0.01a0.37,0.37 0 0 1 0.35,0.48l-1.88,5.98a0.37,0.37 0 0 1 -0.34,0.26l-5.66,0.13a0.37,0.37 0 0 0 -0.34,0.26l-4.94,15.63a0.37,0.37 0 0 1 -0.35,0.26l-7.86,-0.04a0.37,0.37 0 0 1 -0.35,-0.48l4.78,-15.2a0.37,0.37 0 0 0 -0.35,-0.48z" fill="#ffffff"/>
  <path id="svg_15" d="m79.85,54.26l7.67,0.01a0.33,0.33 0 0 1 0.31,0.44l-2.06,5.74a0.33,0.33 0 0 1 -0.31,0.22l-8.15,0.04a0.33,0.33 0 0 0 -0.33,0.3l-0.09,0.98a0.33,0.33 0 0 0 0.33,0.36l8.8,-0.05a0.33,0.33 0 0 1 0.32,0.43l-1.77,6.02a0.33,0.33 0 0 1 -0.32,0.24l-17.57,-0.04a0.33,0.33 0 0 1 -0.31,-0.43l7.05,-22.28a0.33,0.33 0 0 1 0.31,-0.23l17.29,0.02a0.33,0.33 0 0 1 0.32,0.42l-1.63,6.03a0.33,0.33 0 0 1 -0.33,0.25l-9.24,-0.14a0.33,0.33 0 0 0 -0.32,0.24l-0.29,1.01a0.33,0.33 0 0 0 0.32,0.42z" fill="#ffffff"/>
  <path id="svg_16" d="m144.5,62.36l4.57,0a0.44,0.44 0 0 1 0.43,0.35l1.24,5.74a0.44,0.44 0 0 1 -0.43,0.53l-16.39,-0.04a0.44,0.44 0 0 1 -0.42,-0.57l6.99,-22.02a0.44,0.44 0 0 1 0.42,-0.31l7.57,0.03a0.44,0.44 0 0 1 0.42,0.57l-4.82,15.15a0.44,0.44 0 0 0 0.42,0.57z" fill="#ffffff"/>
  <path id="svg_17" d="m205.08,51.33q-1.65,1.51 -3.77,5.5q-0.28,0.54 -0.43,0.65q-0.73,0.59 -0.61,-0.38c0.77,-5.89 5.71,-11.2 12.04,-9.78q1.02,0.23 0.15,0.81q-0.84,0.57 -3.18,0.86q-1.91,0.24 -4.2,2.34z" fill="#ffffff"/>
  <path id="svg_18" d="m165.94,55.66q1.12,1.33 2.4,2.33a0.42,0.42 0 0 1 -0.2,0.75q-2.08,0.3 -3.42,-1.07q-3.15,-3.24 -1.55,-7.69q0.22,-0.61 0.43,0q1.72,4.94 2.34,5.68z" fill="#ffffff"/>
  <path id="svg_19" d="m59.6,83.01c-1.64,5.76 4.56,5.42 8.13,4.34a0.11,0.1 80.9 0 1 0.14,0.11l0,5.84a0.36,0.36 0 0 1 -0.25,0.34q-4.67,1.44 -8.6,1.27c-9.27,-0.38 -10.61,-8.14 -7.06,-15.03q5.15,-10.01 17.78,-8.66q2.05,0.22 3.35,0.6q1.2,0.36 0.58,1.5l-2.36,4.37q-0.56,1.03 -1.74,0.55q-2.64,-1.05 -5.56,-0.01q-3.39,1.21 -4.41,4.78z" fill="#ffffff"/>
  <path id="svg_20" d="m130.88,83.03q2.89,2.1 1.33,5.74q-1.33,3.12 -4.52,4.63q-0.73,0.34 -3.29,0.95q-1.73,0.41 -3.36,0.49q-5.2,0.24 -10.57,-0.12a0.78,0.77 -79.1 0 1 -0.68,-1.01l6.92,-21.59a1.28,1.26 -83.4 0 1 1.1,-0.88q4.77,-0.36 10.46,-0.07q4,0.21 6.16,3.13q0.77,1.03 0.3,2.95q-0.87,3.61 -3.78,5.01a0.45,0.45 0 0 0 -0.07,0.77zm-8.43,-3.71a0.73,0.73 0 0 0 0.76,0.98l2.14,-0.24a0.73,0.73 0 0 0 0.56,-0.37l0.85,-1.56a0.73,0.73 0 0 0 -0.5,-1.06l-2.17,-0.44a0.73,0.73 0 0 0 -0.83,0.47l-0.81,2.22zm-2.9,9.29q-0.05,0.29 0.24,0.35q2.48,0.55 4.46,-1.26a1.5,1.49 -45.4 0 0 -0.01,-2.22q-0.89,-0.8 -2.67,-0.62q-0.54,0.06 -0.84,0.51q-0.84,1.25 -1.18,3.24z" fill="#ffffff"/>
  <path id="svg_21" d="m87.32,89.09l-1.61,5.09q-0.15,0.5 -0.68,0.5l-15.26,0a0.78,0.77 -81.1 0 1 -0.73,-1.01l7.11,-22.19a0.37,0.36 8.6 0 1 0.35,-0.25l8,0q0.3,0 0.21,0.28l-5.17,16.14q-0.08,0.24 0.17,0.24l7.98,0a0.24,0.24 0 0 0 0.23,-0.17l5.16,-16.12q0.12,-0.37 0.51,-0.37l7.91,0a0.24,0.24 0 0 1 0.23,0.31l-4.62,14.41q-0.59,1.84 1.34,1.97q0.22,0.01 0.35,0q1.79,-0.1 2.37,-1.91l4.58,-14.46a0.48,0.46 8.3 0 1 0.45,-0.32l7.68,0q0.42,0 0.29,0.4q-2.96,9.16 -4.91,14.87q-2.49,7.27 -9.98,8.27c-4.44,0.59 -11.22,0.11 -11.26,-5.47q-0.02,-2.35 -0.7,-0.21z" fill="#ffffff"/>
  <path id="svg_22" d="m144.79,79.95l7.09,0q0.96,0 0.66,0.91l-1.33,4.15q-0.29,0.92 -1.26,0.92l-7.33,0q-0.76,0 -0.76,0.76l0,0.73a0.58,0.57 -3.1 0 0 0.64,0.57q4.19,-0.48 8.7,-0.05q0.31,0.03 0.21,0.33l-2.01,6.29q-0.05,0.14 -0.19,0.14l-17.18,0a0.7,0.7 0 0 1 -0.62,-1.02q0.28,-0.56 0.55,-1.42q5.36,-17.26 6.4,-20.51q0.16,-0.52 0.71,-0.52l12.18,0a0.52,0.5 77 0 1 0.46,0.3l2.96,6.1q0.14,0.28 -0.18,0.28l-8.55,0q-0.89,0 -1.38,0.75l-0.26,0.4q-0.57,0.89 0.49,0.89z" fill="#ffffff"/>
  <path id="svg_23" d="m198.55,76.03q-3.18,5.39 -10.09,5.21q-0.97,-0.02 -1.69,-0.52q-0.48,-0.32 0.03,-0.6q0.62,-0.32 4.32,-1.17c2.86,-0.66 4.37,-1.74 6.7,-3.56q2.04,-1.6 0.73,0.64z" fill="#ffffff"/>
  <path id="svg_25" d="m190.27,93.89q2.99,-0.21 0.27,1.06c-10.67,5 -23.69,2.47 -31,-7.25q-0.31,-0.41 -0.38,-0.96a0.56,0.56 0 0 1 0.86,-0.55q13.62,8.85 30.25,7.7z" fill="#ffffff"/>
  <path id="svg_26" d="m84.23,109.43c-0.56,2.25 1.4,3.8 3.49,3.93q1.93,0.12 4.05,-0.26a0.88,0.88 0 0 1 1.04,0.87l0,3.97q0,1.1 -1.07,1.38q-4.91,1.26 -6.91,1.25c-8.42,-0.03 -11.41,-6.14 -8.57,-13.51q3.05,-7.89 10.91,-10.14q5.72,-1.64 11.7,0.76q0.38,0.16 0.16,0.5l-3.63,5.58a0.25,0.25 0 0 1 -0.29,0.11q-8.9,-2.49 -10.88,5.56z" fill="#ffffff"/>
  <path id="svg_27" d="m118.7437,99.3114a14.38,10.72 -39.2 0 1 -4.3683,17.396a14.38,10.72 -39.2 0 1 -17.9191,0.7812a14.38,10.72 -39.2 0 1 4.3683,-17.396a14.38,10.72 -39.2 0 1 17.9191,-0.7812zm-13.8797,14.1313a5.75,3.65 118.3 0 0 5.9397,-3.3323a5.75,3.65 118.3 0 0 -0.4877,-6.7931a5.75,3.65 118.3 0 0 -5.9397,3.3323a5.75,3.65 118.3 0 0 0.4877,6.7931z" fill="#ffffff"/>
  <path id="svg_28" d="m136.76,109.71q0.32,-0.76 -0.26,-0.18l-5.7,5.69a0.3,0.3 0 0 1 -0.5,-0.13l-1.42,-5.36q-0.37,-1.39 -0.81,-0.02l-2.94,9.19q-0.33,1.02 -1.39,1.02l-5.7,0q-1.23,0 -0.85,-1.17l6.65,-20.74a1.86,1.85 -81.3 0 1 1.75,-1.29l6.42,-0.04a0.88,0.7 76.9 0 1 0.72,0.57q0.12,0.29 0.31,1.89q0.08,0.71 0.49,1.58q0.24,0.52 0.22,1.63q-0.04,2.67 1.46,0.49q0.73,-1.06 4.91,-5.77q0.34,-0.38 0.84,-0.38l7.21,0q0.67,0 0.46,0.63l-6.96,21.73q-0.27,0.84 -1.16,0.84l-5.49,0q-1.09,0 -0.89,-1.07q0.98,-5.2 2.63,-9.11z" fill="#ffffff"/>
  <path id="svg_29" d="m73.39,115.44l-0.92,3.17a1.85,1.85 0 0 1 -1.78,1.33l-3.82,0.01a1.85,1.85 0 0 1 -1.78,-2.36l0.89,-3.15a1.85,1.85 0 0 1 1.77,-1.35l3.85,-0.02a1.85,1.85 0 0 1 1.79,2.37z" fill="#ffffff"/>
 </g>
</svg>