<?xml version="1.0" encoding="UTF-8" standalone="no"?>
<!DOCTYPE svg PUBLIC "-//W3C//DTD SVG 1.1//EN" "http://www.w3.org/Graphics/SVG/1.1/DTD/svg11.dtd">
<svg xmlns="http://www.w3.org/2000/svg" version="1.1" viewBox="0.00 0.00 640.00 85.00">
<g stroke-width="2.00" fill="none" stroke-linecap="butt">
<path stroke="#808080" vector-effect="non-scaling-stroke" d="
  M 31.28 29.94
  Q 29.96 38.64 22.09 42.08
  Q 17.28 44.18 12.73 43.91
  Q 12.22 43.88 12.03 44.35
  Q 10.55 47.91 10.38 48.67
  Q 10.14 49.76 9.51 50.35
  Q 9.00 50.85 7.84 50.85
  Q 4.58 50.87 0.23 50.59"
/>
<path stroke="#808080" vector-effect="non-scaling-stroke" d="
  M 104.20 29.50
  Q 103.96 36.33 98.67 40.20
  Q 93.60 43.92 85.93 43.96
  Q 85.42 43.96 85.23 44.44
  L 83.08 49.74
  A 1.76 1.75 11.4 0 1 81.44 50.83
  L 74.21 50.75"
/>
<path stroke="#808080" vector-effect="non-scaling-stroke" d="
  M 318.40 30.64
  Q 318.04 37.55 314.08 42.83
  C 309.16 49.37 300.35 52.96 292.45 50.40
  Q 291.61 50.13 289.19 47.97"
/>
<path stroke="#808080" vector-effect="non-scaling-stroke" d="
  M 367.47 25.94
  L 363.77 31.26
  Q 363.20 32.08 362.20 31.94
  Q 349.29 30.15 349.70 41.90"
/>
<path stroke="#808080" vector-effect="non-scaling-stroke" d="
  M 359.29 43.65
  Q 358.42 45.51 358.58 47.60
  A 2.32 2.32 0.0 0 1 357.03 49.97
  Q 353.87 51.08 350.27 51.38
  Q 345.08 51.80 341.00 48.81"
/>
<path stroke="#808080" vector-effect="non-scaling-stroke" d="
  M 580.18 25.67
  Q 577.57 28.27 576.22 31.09
  A 1.67 1.67 0.0 0 1 574.20 31.96
  C 569.72 30.50 564.62 32.15 562.52 36.50
  Q 561.25 39.12 562.11 41.78"
/>
<path stroke="#808080" vector-effect="non-scaling-stroke" d="
  M 571.42 43.46
  Q 570.62 46.05 571.25 48.46"
/>
<path stroke="#808080" vector-effect="non-scaling-stroke" d="
  M 571.00 49.14
  Q 568.64 50.41 567.86 50.60
  Q 565.34 51.20 560.37 51.36
  Q 557.03 51.46 553.21 48.77"
/>
<path stroke="#808080" vector-effect="non-scaling-stroke" d="
  M 604.97 30.22
  Q 604.04 47.05 587.89 50.96
  Q 581.58 52.49 576.18 48.46"
/>
<path stroke="#808080" vector-effect="non-scaling-stroke" d="
  M 52.30 24.58
  L 50.33 49.21
  A 1.69 1.69 0.0 0 1 48.68 50.77
  L 40.81 50.91"
/>
<path stroke="#808080" vector-effect="non-scaling-stroke" d="
  M 41.47 46.68
  Q 38.59 45.37 34.42 45.93
  Q 33.93 46.00 33.69 46.43
  L 31.54 50.14
  A 1.44 1.43 16.4 0 1 30.21 50.86
  L 21.65 50.34"
/>
<path stroke="#808080" vector-effect="non-scaling-stroke" d="
  M 289.28 29.38
  Q 288.17 34.67 283.89 37.06
  Q 283.41 37.33 283.75 37.77
  Q 284.04 38.14 284.65 38.28"
/>
<path stroke="#808080" vector-effect="non-scaling-stroke" d="
  M 285.98 41.03
  Q 284.96 45.99 281.39 48.16
  Q 277.52 50.50 274.00 50.78
  Q 268.74 51.20 259.75 50.73"
/>
<path stroke="#808080" vector-effect="non-scaling-stroke" d="
  M 438.90 29.07
  Q 438.19 34.67 433.45 37.07
  Q 432.94 37.32 433.30 37.76
  Q 433.56 38.07 434.23 38.34"
/>
<path stroke="#808080" vector-effect="non-scaling-stroke" d="
  M 435.62 40.95
  Q 433.96 47.65 427.73 49.83
  Q 425.75 50.52 424.46 50.67
  Q 417.53 51.46 408.67 50.42"
/>
<path stroke="#808080" vector-effect="non-scaling-stroke" d="
  M 72.56 24.96
  L 64.88 42.61
  A 0.36 0.36 0.0 0 0 64.88 42.89
  Q 65.09 43.41 65.70 43.13"
/>
<path stroke="#808080" vector-effect="non-scaling-stroke" d="
  M 73.86 43.34
  L 71.35 49.70
  A 1.81 1.80 10.7 0 1 69.67 50.84
  L 53.02 50.87"
/>
<path stroke="#808080" vector-effect="non-scaling-stroke" d="
  M 119.07 25.77
  Q 114.00 37.51 109.75 49.09
  Q 109.16 50.70 107.51 50.82
  Q 103.33 51.11 99.38 50.20"
/>
<path stroke="#808080" vector-effect="non-scaling-stroke" d="
  M 144.81 25.45
  L 142.28 31.11
  A 1.46 1.44 11.8 0 1 140.95 31.97
  L 135.47 31.97
  A 0.85 0.84 10.6 0 0 134.68 32.50
  L 127.59 50.02
  A 1.34 1.33 12.0 0 1 126.31 50.85
  L 117.95 50.63"
/>
<path stroke="#808080" vector-effect="non-scaling-stroke" d="
  M 125.08 32.93
  Q 125.17 31.17 119.09 32.18"
/>
<path stroke="#808080" vector-effect="non-scaling-stroke" d="
  M 168.08 25.60
  Q 166.28 28.15 165.66 30.76
  Q 165.38 31.96 164.15 31.95
  Q 159.07 31.92 154.65 31.99
  Q 153.21 32.01 153.42 33.24
  Q 153.50 33.71 153.97 33.72
  Q 154.39 33.73 154.63 33.65"
/>
<path stroke="#808080" vector-effect="non-scaling-stroke" d="
  M 162.77 34.74
  L 160.57 39.54
  A 1.86 1.86 0.0 0 1 158.88 40.62
  L 150.89 40.62
  A 0.90 0.88 -71.6 0 0 150.17 40.99
  Q 149.50 41.90 149.84 43.01"
/>
<path stroke="#808080" vector-effect="non-scaling-stroke" d="
  M 160.35 43.36
  L 158.06 49.72
  A 1.43 1.43 0.0 0 1 156.70 50.67
  L 137.22 50.57"
/>
<path stroke="#808080" vector-effect="non-scaling-stroke" d="
  M 190.77 25.67
  L 188.60 30.85
  Q 188.15 31.93 186.98 31.93
  L 178.74 31.93
  Q 178.12 31.93 177.88 32.51
  L 177.05 34.56
  Q 176.84 35.08 177.39 35.21
  Q 177.75 35.29 178.34 35.05"
/>
<path stroke="#808080" vector-effect="non-scaling-stroke" d="
  M 185.45 36.21
  L 182.67 41.95
  A 1.58 1.58 0.0 0 1 181.25 42.84
  L 174.53 42.84
  A 1.22 1.20 -78.8 0 0 173.41 43.60
  L 170.82 50.00
  A 1.29 1.28 -78.5 0 1 169.62 50.80
  L 161.99 50.71"
/>
<path stroke="#808080" vector-effect="non-scaling-stroke" d="
  M 202.75 25.79
  Q 198.38 34.23 195.97 43.28"
/>
<path stroke="#808080" vector-effect="non-scaling-stroke" d="
  M 217.51 25.12
  Q 214.33 31.52 212.08 37.22
  Q 209.84 42.89 207.91 45.21
  Q 199.98 54.75 187.01 49.28"
/>
<path stroke="#808080" vector-effect="non-scaling-stroke" d="
  M 243.28 25.69
  L 240.91 30.88
  A 1.94 1.93 -77.5 0 1 239.16 32.00
  L 233.95 32.00
  A 0.81 0.79 10.7 0 0 233.20 32.50
  L 226.34 49.44
  A 2.19 2.19 0.0 0 1 224.50 50.81
  Q 220.47 51.17 216.44 50.17"
/>
<path stroke="#808080" vector-effect="non-scaling-stroke" d="
  M 223.57 32.81
  Q 222.24 31.22 216.83 32.22"
/>
<path stroke="#808080" vector-effect="non-scaling-stroke" d="
  M 265.93 25.56
  Q 264.09 28.13 263.40 30.83
  A 1.49 1.48 -82.5 0 1 261.95 31.95
  Q 252.78 31.92 252.14 32.02
  Q 251.14 32.17 251.21 33.14
  Q 251.25 33.62 251.72 33.71
  Q 252.20 33.80 252.79 33.67"
/>
<path stroke="#808080" vector-effect="non-scaling-stroke" d="
  M 260.47 34.74
  L 258.35 39.64
  A 1.69 1.64 11.5 0 1 256.82 40.62
  L 249.06 40.61
  A 1.62 1.56 -19.3 0 0 247.76 43.19
  Q 247.81 43.25 248.72 43.14"
/>
<path stroke="#808080" vector-effect="non-scaling-stroke" d="
  M 258.11 43.99
  L 255.70 50.02
  A 0.94 0.94 0.0 0 1 254.81 50.61
  L 235.02 50.55"
/>
<path stroke="#808080" vector-effect="non-scaling-stroke" d="
  M 334.77 25.68
  L 327.60 42.31
  Q 327.39 42.79 327.80 43.11
  Q 328.07 43.31 328.56 43.13"
/>
<path stroke="#808080" vector-effect="non-scaling-stroke" d="
  M 336.34 43.80
  L 333.99 49.90
  A 1.27 1.27 0.0 0 1 332.79 50.71
  L 314.82 50.52"
/>
<path stroke="#808080" vector-effect="non-scaling-stroke" d="
  M 379.97 25.67
  L 372.81 42.50
  Q 372.59 43.03 373.14 43.18
  Q 373.54 43.30 374.30 43.16"
/>
<path stroke="#808080" vector-effect="non-scaling-stroke" d="
  M 381.91 43.34
  L 379.82 49.05
  A 2.75 2.75 0.0 0 1 377.22 50.86
  L 361.01 50.79"
/>
<path stroke="#808080" vector-effect="non-scaling-stroke" d="
  M 465.90 25.67
  L 463.45 31.16
  A 1.32 1.31 -77.8 0 1 462.23 31.95
  Q 457.59 31.94 452.75 31.97
  Q 452.05 31.97 451.85 32.18
  Q 451.51 32.53 451.42 33.07
  Q 451.31 33.70 451.95 33.68
  L 453.30 33.64"
/>
<path stroke="#808080" vector-effect="non-scaling-stroke" d="
  M 460.83 34.94
  Q 459.39 36.96 458.86 39.32
  A 1.68 1.67 6.2 0 1 457.22 40.63
  L 449.15 40.63
  Q 448.66 40.63 448.36 41.01
  Q 447.87 41.61 447.62 42.35
  Q 447.42 42.92 447.99 43.12
  Q 448.47 43.29 449.17 43.13"
/>
<path stroke="#808080" vector-effect="non-scaling-stroke" d="
  M 458.25 43.93
  L 455.68 50.02
  Q 455.48 50.49 454.96 50.49
  L 435.31 50.50"
/>
<path stroke="#808080" vector-effect="non-scaling-stroke" d="
  M 401.52 25.05
  Q 399.64 28.60 395.19 39.40
  Q 394.03 42.24 394.61 43.23"
/>
<path stroke="#808080" vector-effect="non-scaling-stroke" d="
  M 415.82 25.14
  Q 412.91 30.59 410.86 35.57
  Q 407.79 43.00 406.27 44.99
  Q 398.95 54.51 385.44 49.58"
/>
<path stroke="#808080" vector-effect="non-scaling-stroke" d="
  M 547.43 43.65
  L 544.84 49.87
  Q 544.43 50.88 543.33 50.83
  L 536.13 50.49"
/>
<path stroke="#808080" vector-effect="non-scaling-stroke" d="
  M 486.84 43.20
  Q 487.51 41.59 488.02 40.93
  Q 489.26 39.32 487.23 39.30
  Q 485.37 39.29 483.72 38.74"
/>
<path stroke="#666666" vector-effect="non-scaling-stroke" d="
  M 483.72 38.74
  Q 479.55 34.95 481.25 28.93
  Q 483.21 21.96 491.57 20.64
  A 1.69 1.69 0.0 0 0 492.99 19.11
  Q 493.21 16.65 494.32 14.82
  Q 495.06 13.60 493.74 14.15
  Q 481.42 19.31 476.83 31.55
  Q 472.84 42.16 479.35 51.28
  A 0.81 0.80 -29.4 0 0 480.34 51.55
  Q 482.49 50.59 484.12 51.02
  Q 487.80 51.98 486.17 48.66
  Q 485.18 46.66 486.84 43.20"
/>
<path stroke="#e6e6e6" vector-effect="non-scaling-stroke" d="
  M 483.72 38.74
  Q 484.40 44.04 486.84 43.20"
/>
<path stroke="#808080" vector-effect="non-scaling-stroke" d="
  M 511.12 15.94
  C 512.01 17.01 512.50 18.08 514.20 17.72
  A 0.63 0.62 63.6 0 0 514.54 16.70
  Q 513.36 15.34 510.86 14.54
  A 0.39 0.33 86.2 0 0 510.48 15.06
  Q 510.54 15.24 511.12 15.94"
/>
<path stroke="#808080" vector-effect="non-scaling-stroke" d="
  M 498.53 26.80
  Q 498.55 32.07 495.58 35.00
  Q 492.47 38.08 496.75 37.49
  Q 497.46 37.40 500.09 38.08
  Q 503.59 39.01 504.37 42.26
  A 0.73 0.73 0.0 0 0 505.08 42.83
  L 505.52 42.83
  Q 506.06 42.83 506.31 42.34
  Q 508.87 37.17 509.56 36.57
  Q 510.98 35.32 511.88 35.11
  Q 513.79 34.66 516.11 33.75
  Q 517.48 33.20 516.38 32.22
  C 514.87 30.88 511.63 28.20 511.55 26.23
  Q 511.45 23.86 511.59 21.63
  Q 511.76 19.03 509.99 20.94
  Q 505.65 25.66 498.89 23.07
  A 1.02 1.02 0.0 0 0 497.51 24.12
  Q 497.60 25.06 498.24 25.94
  A 1.42 1.41 -63.8 0 1 498.53 26.80"
/>
<path stroke="#808080" vector-effect="non-scaling-stroke" d="
  M 521.33 38.58
  L 521.55 31.59
  A 0.03 0.03 0.0 0 0 521.52 31.55
  L 521.44 31.55
  A 3.39 1.41 -88.2 0 0 519.92 34.90
  L 519.92 35.18
  A 3.39 1.41 -88.2 0 0 521.22 38.61
  L 521.30 38.61
  A 0.03 0.03 0.0 0 0 521.33 38.58"
/>
<path stroke="#808080" vector-effect="non-scaling-stroke" d="
  M 506.96 50.79
  L 505.27 49.10
  Q 504.73 48.56 504.35 49.23
  Q 501.66 53.97 493.98 54.00
  Q 491.70 54.01 493.19 55.74
  L 494.15 56.85
  A 3.34 3.33 65.8 0 0 497.12 57.98
  Q 504.32 56.99 510.41 52.72
  Q 512.81 51.03 509.80 51.30
  Q 508.99 51.37 507.67 51.16
  Q 507.26 51.09 506.96 50.79"
/>
<path stroke="#808080" vector-effect="non-scaling-stroke" d="
  M 499.55 32.60
  Q 498.70 33.97 498.32 34.82
  Q 497.89 35.79 498.73 35.16
  Q 502.93 32.03 502.05 27.27
  A 1.15 1.14 6.2 0 0 501.35 26.41
  L 501.02 26.28
  A 0.33 0.33 0.0 0 0 500.57 26.65
  Q 501.18 29.96 499.55 32.60"
/>
<path stroke="#808080" vector-effect="non-scaling-stroke" d="
  M 509.85 34.36
  Q 510.89 33.47 513.57 33.09
  A 0.23 0.23 0.0 0 0 513.76 32.78
  L 513.62 32.44
  Q 513.45 32.02 513.07 32.07
  Q 506.62 32.80 505.55 38.86
  Q 505.20 40.84 506.17 39.07
  Q 507.77 36.14 509.85 34.36"
/>
<path stroke="#808080" vector-effect="non-scaling-stroke" d="
  M 21.01 32.96
  Q 19.82 30.53 17.60 31.23
  Q 17.16 31.37 16.98 31.80
  L 15.30 35.96
  Q 15.11 36.43 15.57 36.63
  Q 15.91 36.79 16.54 36.66"
/>
<path stroke="#808080" vector-effect="non-scaling-stroke" d="
  M 94.26 33.15
  Q 93.78 30.91 90.99 31.07
  Q 90.46 31.10 90.26 31.59
  L 88.50 35.93
  A 0.45 0.45 0.0 0 0 88.54 36.33
  Q 88.85 36.83 89.52 36.62"
/>
<path stroke="#808080" vector-effect="non-scaling-stroke" d="
  M 307.93 33.25
  A 7.03 4.01 -56.6 0 0 303.88 31.59
  A 7.01 4.05 -56.6 0 0 300.70 33.93
  A 7.05 4.02 -56.5 0 0 298.34 42.64"
/>
<path stroke="#808080" vector-effect="non-scaling-stroke" d="
  M 594.59 33.09
  A 7.00 4.01 -57.1 0 0 592.98 31.38
  A 7.04 4.05 -57.0 0 0 589.24 32.28
  A 7.02 4.03 -56.9 0 0 584.94 42.31"
/>
<path stroke="#808080" vector-effect="non-scaling-stroke" d="
  M 42.78 35.44
  Q 43.32 34.18 43.02 33.38
  Q 42.78 32.75 42.41 33.31
  L 38.62 38.99
  Q 38.31 39.46 38.78 39.78
  Q 39.19 40.05 39.92 39.68"
/>
<path stroke="#808080" vector-effect="non-scaling-stroke" d="
  M 279.83 32.11
  Q 279.85 31.10 278.92 30.86
  Q 277.14 30.39 276.25 30.79
  A 0.89 0.89 0.0 0 0 275.80 31.27
  L 274.54 34.36
  A 0.32 0.30 36.9 0 0 274.59 34.66
  Q 274.93 35.07 275.76 34.79"
/>
<path stroke="#808080" vector-effect="non-scaling-stroke" d="
  M 276.63 41.43
  Q 276.69 41.01 276.33 40.52
  C 275.67 39.64 273.97 39.73 272.89 39.82
  Q 272.31 39.86 272.10 40.39
  L 270.65 43.98
  Q 270.48 44.38 270.89 44.56
  Q 271.44 44.79 271.75 44.30"
/>
<path stroke="#808080" vector-effect="non-scaling-stroke" d="
  M 429.42 32.13
  A 2.80 1.86 -36.0 0 0 428.73 30.74
  A 2.79 1.85 -37.1 0 0 424.67 34.42
  A 2.76 1.81 -36.5 0 0 425.43 34.94"
/>
<path stroke="#808080" vector-effect="non-scaling-stroke" d="
  M 426.40 41.78
  Q 426.47 40.57 424.56 39.69
  A 2.25 2.25 0.0 0 0 421.54 40.89
  L 420.36 43.81
  A 0.61 0.61 0.0 0 0 420.81 44.64
  Q 421.33 44.74 421.71 44.50"
/>
<path stroke="#808080" vector-effect="non-scaling-stroke" d="
  M 639.47 25.69
  L 629.44 50.23
  A 0.90 0.89 -77.5 0 1 628.57 50.79
  L 620.69 50.42"
/>
<path stroke="#808080" vector-effect="non-scaling-stroke" d="
  M 624.27 40.95
  Q 624.98 39.77 625.23 39.00
  Q 625.75 37.37 624.52 38.56
  L 617.35 45.47"
/>
<path stroke="#808080" vector-effect="non-scaling-stroke" d="
  M 616.05 39.87
  Q 616.62 39.05 615.88 38.34
  Q 615.48 37.96 615.28 38.46
  L 610.65 49.89
  A 1.49 1.49 0.0 0 1 609.20 50.81
  L 601.54 50.38"
/>
<path stroke="#808080" vector-effect="non-scaling-stroke" d="
  M 621.88 25.73
  L 622.65 32.39"
/>
<path stroke="#808080" vector-effect="non-scaling-stroke" d="
  M 497.48 55.08
  Q 496.29 55.10 496.22 55.13
  Q 494.25 56.04 496.29 56.47
  Q 500.77 57.40 504.05 53.62
  Q 504.43 53.19 504.21 52.66
  L 504.09 52.37
  A 0.28 0.28 0.0 0 0 503.64 52.28
  C 502.02 53.83 499.76 55.05 497.48 55.08"
/>
</g>
<path fill="#000000" d="
  M 383.58 4.18
  Q 386.19 4.51 387.14 4.57
  Q 403.48 5.50 415.29 5.87
  Q 448.27 6.90 477.50 4.41
  Q 487.06 3.60 500.77 1.35
  C 511.82 -0.46 523.53 4.11 529.77 13.62
  C 538.30 26.62 534.52 43.86 524.62 55.35
  Q 516.43 64.85 503.37 71.88
  Q 487.47 80.45 467.36 84.25
  Q 466.53 84.41 466.77 83.61
  L 467.93 79.71
  Q 468.15 78.98 468.90 78.79
  Q 475.61 77.15 483.68 74.90
  Q 494.59 71.86 505.10 65.62
  C 517.71 58.12 527.47 47.73 529.29 33.03
  Q 529.79 28.93 528.58 24.74
  C 524.40 10.23 512.35 3.96 497.53 6.62
  Q 492.52 7.52 489.54 7.82
  Q 462.94 10.53 433.62 9.35
  Q 408.41 8.33 383.32 5.03
  Q 383.00 4.99 383.12 4.69
  L 383.25 4.37
  Q 383.34 4.15 383.58 4.18
  Z"
/>
<path fill="#000000" d="
  M 520.0411 16.0003
  A 28.97 24.31 -42.2 0 1 514.9095 53.4690
  A 28.97 24.31 -42.2 0 1 477.1189 54.9197
  A 28.97 24.31 -42.2 0 1 482.2505 17.4510
  A 28.97 24.31 -42.2 0 1 520.0411 16.0003
  Z
  M 486.84 43.20
  Q 487.51 41.59 488.02 40.93
  Q 489.26 39.32 487.23 39.30
  Q 485.37 39.29 483.72 38.74
  Q 479.55 34.95 481.25 28.93
  Q 483.21 21.96 491.57 20.64
  A 1.69 1.69 0.0 0 0 492.99 19.11
  Q 493.21 16.65 494.32 14.82
  Q 495.06 13.60 493.74 14.15
  Q 481.42 19.31 476.83 31.55
  Q 472.84 42.16 479.35 51.28
  A 0.81 0.80 -29.4 0 0 480.34 51.55
  Q 482.49 50.59 484.12 51.02
  Q 487.80 51.98 486.17 48.66
  Q 485.18 46.66 486.84 43.20
  Z
  M 511.12 15.94
  C 512.01 17.01 512.50 18.08 514.20 17.72
  A 0.63 0.62 63.6 0 0 514.54 16.70
  Q 513.36 15.34 510.86 14.54
  A 0.39 0.33 86.2 0 0 510.48 15.06
  Q 510.54 15.24 511.12 15.94
  Z
  M 498.53 26.80
  Q 498.55 32.07 495.58 35.00
  Q 492.47 38.08 496.75 37.49
  Q 497.46 37.40 500.09 38.08
  Q 503.59 39.01 504.37 42.26
  A 0.73 0.73 0.0 0 0 505.08 42.83
  L 505.52 42.83
  Q 506.06 42.83 506.31 42.34
  Q 508.87 37.17 509.56 36.57
  Q 510.98 35.32 511.88 35.11
  Q 513.79 34.66 516.11 33.75
  Q 517.48 33.20 516.38 32.22
  C 514.87 30.88 511.63 28.20 511.55 26.23
  Q 511.45 23.86 511.59 21.63
  Q 511.76 19.03 509.99 20.94
  Q 505.65 25.66 498.89 23.07
  A 1.02 1.02 0.0 0 0 497.51 24.12
  Q 497.60 25.06 498.24 25.94
  A 1.42 1.41 -63.8 0 1 498.53 26.80
  Z
  M 521.33 38.58
  L 521.55 31.59
  A 0.03 0.03 0.0 0 0 521.52 31.55
  L 521.44 31.55
  A 3.39 1.41 -88.2 0 0 519.92 34.90
  L 519.92 35.18
  A 3.39 1.41 -88.2 0 0 521.22 38.61
  L 521.30 38.61
  A 0.03 0.03 0.0 0 0 521.33 38.58
  Z
  M 506.96 50.79
  L 505.27 49.10
  Q 504.73 48.56 504.35 49.23
  Q 501.66 53.97 493.98 54.00
  Q 491.70 54.01 493.19 55.74
  L 494.15 56.85
  A 3.34 3.33 65.8 0 0 497.12 57.98
  Q 504.32 56.99 510.41 52.72
  Q 512.81 51.03 509.80 51.30
  Q 508.99 51.37 507.67 51.16
  Q 507.26 51.09 506.96 50.79
  Z"
/>
<path fill="#cccccc" d="
  M 483.72 38.74
  Q 484.40 44.04 486.84 43.20
  Q 485.18 46.66 486.17 48.66
  Q 487.80 51.98 484.12 51.02
  Q 482.49 50.59 480.34 51.55
  A 0.81 0.80 -29.4 0 1 479.35 51.28
  Q 472.84 42.16 476.83 31.55
  Q 481.42 19.31 493.74 14.15
  Q 495.06 13.60 494.32 14.82
  Q 493.21 16.65 492.99 19.11
  A 1.69 1.69 0.0 0 1 491.57 20.64
  Q 483.21 21.96 481.25 28.93
  Q 479.55 34.95 483.72 38.74
  Z"
/>
<path fill="#ffffff" d="
  M 511.12 15.94
  Q 510.54 15.24 510.48 15.06
  A 0.39 0.33 86.2 0 1 510.86 14.54
  Q 513.36 15.34 514.54 16.70
  A 0.63 0.62 63.6 0 1 514.20 17.72
  C 512.50 18.08 512.01 17.01 511.12 15.94
  Z"
/>
<path fill="#ffffff" d="
  M 498.24 25.94
  Q 497.60 25.06 497.51 24.12
  A 1.02 1.02 0.0 0 1 498.89 23.07
  Q 505.65 25.66 509.99 20.94
  Q 511.76 19.03 511.59 21.63
  Q 511.45 23.86 511.55 26.23
  C 511.63 28.20 514.87 30.88 516.38 32.22
  Q 517.48 33.20 516.11 33.75
  Q 513.79 34.66 511.88 35.11
  Q 510.98 35.32 509.56 36.57
  Q 508.87 37.17 506.31 42.34
  Q 506.06 42.83 505.52 42.83
  L 505.08 42.83
  A 0.73 0.73 0.0 0 1 504.37 42.26
  Q 503.59 39.01 500.09 38.08
  Q 497.46 37.40 496.75 37.49
  Q 492.47 38.08 495.58 35.00
  Q 498.55 32.07 498.53 26.80
  A 1.42 1.41 -63.8 0 0 498.24 25.94
  Z
  M 499.55 32.60
  Q 498.70 33.97 498.32 34.82
  Q 497.89 35.79 498.73 35.16
  Q 502.93 32.03 502.05 27.27
  A 1.15 1.14 6.2 0 0 501.35 26.41
  L 501.02 26.28
  A 0.33 0.33 0.0 0 0 500.57 26.65
  Q 501.18 29.96 499.55 32.60
  Z
  M 509.85 34.36
  Q 510.89 33.47 513.57 33.09
  A 0.23 0.23 0.0 0 0 513.76 32.78
  L 513.62 32.44
  Q 513.45 32.02 513.07 32.07
  Q 506.62 32.80 505.55 38.86
  Q 505.20 40.84 506.17 39.07
  Q 507.77 36.14 509.85 34.36
  Z"
/>
<path fill="#ffffff" d="
  M 31.28 29.94
  Q 29.96 38.64 22.09 42.08
  Q 17.28 44.18 12.73 43.91
  Q 12.22 43.88 12.03 44.35
  Q 10.55 47.91 10.38 48.67
  Q 10.14 49.76 9.51 50.35
  Q 9.00 50.85 7.84 50.85
  Q 4.58 50.87 0.23 50.59
  L 10.58 25.01
  A 0.89 0.89 0.0 0 1 11.26 24.47
  Q 18.65 23.29 25.22 24.50
  Q 29.48 25.29 31.28 29.94
  Z
  M 16.54 36.66
  Q 20.62 36.32 21.01 32.96
  Q 19.82 30.53 17.60 31.23
  Q 17.16 31.37 16.98 31.80
  L 15.30 35.96
  Q 15.11 36.43 15.57 36.63
  Q 15.91 36.79 16.54 36.66
  Z"
/>
<path fill="#ffffff" d="
  M 104.20 29.50
  Q 103.96 36.33 98.67 40.20
  Q 93.60 43.92 85.93 43.96
  Q 85.42 43.96 85.23 44.44
  L 83.08 49.74
  A 1.76 1.75 11.4 0 1 81.44 50.83
  L 74.21 50.75
  Q 73.32 50.35 73.84 49.09
  Q 78.89 36.90 83.55 25.30
  Q 83.86 24.55 84.66 24.43
  Q 91.11 23.48 97.44 24.36
  Q 102.49 25.07 104.20 29.50
  Z
  M 89.52 36.62
  Q 93.38 36.49 94.26 33.15
  Q 93.78 30.91 90.99 31.07
  Q 90.46 31.10 90.26 31.59
  L 88.50 35.93
  A 0.45 0.45 0.0 0 0 88.54 36.33
  Q 88.85 36.83 89.52 36.62
  Z"
/>
<path fill="#ffffff" d="
  M 318.40 30.64
  Q 318.04 37.55 314.08 42.83
  C 309.16 49.37 300.35 52.96 292.45 50.40
  Q 291.61 50.13 289.19 47.97
  A 17.22 12.33 -38.7 0 1 297.31 27.31
  A 17.22 12.32 -38.6 0 1 311.50 24.15
  A 17.23 12.34 -38.7 0 1 318.40 30.64
  Z
  M 298.34 42.64
  A 7.04 4.01 -56.5 0 0 303.65 42.62
  A 7.04 4.02 -56.5 0 0 307.93 33.25
  A 7.03 4.01 -56.6 0 0 303.88 31.59
  A 7.01 4.05 -56.6 0 0 300.70 33.93
  A 7.05 4.02 -56.5 0 0 298.34 42.64
  Z"
/>
<path fill="#ffffff" d="
  M 367.47 25.94
  L 363.77 31.26
  Q 363.20 32.08 362.20 31.94
  Q 349.29 30.15 349.70 41.90
  Q 351.95 43.71 354.01 43.57
  Q 356.19 43.43 358.33 42.83
  Q 358.83 42.68 359.09 43.13
  Q 359.24 43.37 359.29 43.65
  Q 358.42 45.51 358.58 47.60
  A 2.32 2.32 0.0 0 1 357.03 49.97
  Q 353.87 51.08 350.27 51.38
  Q 345.08 51.80 341.00 48.81
  Q 338.74 45.55 339.06 42.89
  Q 340.78 28.95 353.81 24.76
  Q 359.95 22.79 367.04 25.26
  Q 367.22 25.32 367.33 25.48
  Q 367.53 25.77 367.47 25.94
  Z"
/>
<path fill="#ffffff" d="
  M 580.18 25.67
  Q 577.57 28.27 576.22 31.09
  A 1.67 1.67 0.0 0 1 574.20 31.96
  C 569.72 30.50 564.62 32.15 562.52 36.50
  Q 561.25 39.12 562.11 41.78
  Q 563.04 42.98 563.65 43.15
  Q 567.11 44.11 570.45 42.75
  Q 570.98 42.54 571.23 43.05
  L 571.42 43.46
  Q 570.62 46.05 571.25 48.46
  L 571.00 49.14
  Q 568.64 50.41 567.86 50.60
  Q 565.34 51.20 560.37 51.36
  Q 557.03 51.46 553.21 48.77
  Q 550.69 45.44 551.33 41.79
  Q 553.53 29.23 565.01 24.99
  Q 572.04 22.39 580.18 25.67
  Z"
/>
<path fill="#ffffff" d="
  M 604.97 30.22
  Q 604.04 47.05 587.89 50.96
  Q 581.58 52.49 576.18 48.46
  A 17.23 12.31 -38.7 0 1 583.44 27.72
  A 17.24 12.30 -38.7 0 1 597.78 24.04
  A 17.22 12.30 -38.7 0 1 604.97 30.22
  Z
  M 584.94 42.31
  A 7.08 4.07 -55.8 0 0 586.52 43.71
  A 7.02 4.03 -57.0 0 0 590.39 42.61
  A 7.02 4.02 -56.9 0 0 594.59 33.09
  A 7.00 4.01 -57.1 0 0 592.98 31.38
  A 7.04 4.05 -57.0 0 0 589.24 32.28
  A 7.02 4.03 -56.9 0 0 584.94 42.31
  Z"
/>
<path fill="#ffffff" d="
  M 52.30 24.58
  L 50.33 49.21
  A 1.69 1.69 0.0 0 1 48.68 50.77
  L 40.81 50.91
  Q 40.32 48.79 41.47 46.68
  Q 38.59 45.37 34.42 45.93
  Q 33.93 46.00 33.69 46.43
  L 31.54 50.14
  A 1.44 1.43 16.4 0 1 30.21 50.86
  L 21.65 50.34
  L 40.34 24.86
  Q 40.70 24.36 41.32 24.37
  L 52.30 24.58
  Z
  M 39.92 39.68
  Q 41.03 40.09 41.72 39.78
  Q 42.29 39.53 42.41 38.45
  Q 42.59 36.89 42.78 35.44
  Q 43.32 34.18 43.02 33.38
  Q 42.78 32.75 42.41 33.31
  L 38.62 38.99
  Q 38.31 39.46 38.78 39.78
  Q 39.19 40.05 39.92 39.68
  Z"
/>
<path fill="#ffffff" d="
  M 289.28 29.38
  Q 288.17 34.67 283.89 37.06
  Q 283.41 37.33 283.75 37.77
  Q 284.04 38.14 284.65 38.28
  L 285.98 41.03
  Q 284.96 45.99 281.39 48.16
  Q 277.52 50.50 274.00 50.78
  Q 268.74 51.20 259.75 50.73
  Q 258.93 50.33 259.34 49.33
  Q 264.49 36.96 269.18 25.46
  Q 269.43 24.85 270.08 24.76
  Q 276.46 23.82 283.15 24.64
  Q 288.24 25.27 289.28 29.38
  Z
  M 275.76 34.79
  Q 278.93 35.17 279.83 32.11
  Q 279.85 31.10 278.92 30.86
  Q 277.14 30.39 276.25 30.79
  A 0.89 0.89 0.0 0 0 275.80 31.27
  L 274.54 34.36
  A 0.32 0.30 36.9 0 0 274.59 34.66
  Q 274.93 35.07 275.76 34.79
  Z
  M 271.75 44.30
  Q 276.06 44.90 276.63 41.43
  Q 276.69 41.01 276.33 40.52
  C 275.67 39.64 273.97 39.73 272.89 39.82
  Q 272.31 39.86 272.10 40.39
  L 270.65 43.98
  Q 270.48 44.38 270.89 44.56
  Q 271.44 44.79 271.75 44.30
  Z"
/>
<path fill="#ffffff" d="
  M 438.90 29.07
  Q 438.19 34.67 433.45 37.07
  Q 432.94 37.32 433.30 37.76
  Q 433.56 38.07 434.23 38.34
  L 435.62 40.95
  Q 433.96 47.65 427.73 49.83
  Q 425.75 50.52 424.46 50.67
  Q 417.53 51.46 408.67 50.42
  L 418.76 25.58
  Q 419.08 24.80 419.92 24.70
  C 424.77 24.13 431.31 23.68 435.79 25.46
  Q 437.91 26.31 438.90 29.07
  Z
  M 425.43 34.94
  A 2.79 1.85 -37.0 0 0 429.42 32.13
  A 2.80 1.86 -36.0 0 0 428.73 30.74
  A 2.79 1.85 -37.1 0 0 424.67 34.42
  A 2.76 1.81 -36.5 0 0 425.43 34.94
  Z
  M 421.71 44.50
  Q 425.23 44.59 426.40 41.78
  Q 426.47 40.57 424.56 39.69
  A 2.25 2.25 0.0 0 0 421.54 40.89
  L 420.36 43.81
  A 0.61 0.61 0.0 0 0 420.81 44.64
  Q 421.33 44.74 421.71 44.50
  Z"
/>
<path fill="#ffffff" d="
  M 639.47 25.69
  L 629.44 50.23
  A 0.90 0.89 -77.5 0 1 628.57 50.79
  L 620.69 50.42
  L 624.27 40.95
  Q 624.98 39.77 625.23 39.00
  Q 625.75 37.37 624.52 38.56
  L 617.35 45.47
  L 616.05 39.87
  Q 616.62 39.05 615.88 38.34
  Q 615.48 37.96 615.28 38.46
  L 610.65 49.89
  A 1.49 1.49 0.0 0 1 609.20 50.81
  L 601.54 50.38
  L 611.78 25.16
  A 1.15 1.12 -78.8 0 1 612.83 24.44
  Q 616.63 24.41 620.50 24.54
  Q 621.76 24.59 621.88 25.73
  L 622.65 32.39
  L 630.09 24.84
  A 1.36 1.32 21.6 0 1 631.05 24.44
  L 639.14 24.44
  Q 639.62 24.44 639.66 24.92
  Q 639.69 25.28 639.47 25.69
  Z"
/>
<path fill="#ffffff" d="
  M 72.56 24.96
  L 64.88 42.61
  A 0.36 0.36 0.0 0 0 64.88 42.89
  Q 65.09 43.41 65.70 43.13
  L 73.86 43.34
  L 71.35 49.70
  A 1.81 1.80 10.7 0 1 69.67 50.84
  L 53.02 50.87
  Q 52.62 50.70 52.47 50.14
  Q 52.37 49.78 52.55 49.32
  Q 57.48 37.02 62.49 24.97
  A 0.89 0.88 -77.3 0 1 63.35 24.42
  L 72.56 24.96
  Z"
/>
<path fill="#ffffff" d="
  M 119.07 25.77
  Q 114.00 37.51 109.75 49.09
  Q 109.16 50.70 107.51 50.82
  Q 103.33 51.11 99.38 50.20
  L 109.55 25.26
  A 1.34 1.33 -78.9 0 1 110.79 24.42
  L 118.33 24.42
  A 0.67 0.67 0.0 0 1 118.86 24.68
  Q 119.27 25.21 119.07 25.77
  Z"
/>
<path fill="#ffffff" d="
  M 144.81 25.45
  L 142.28 31.11
  A 1.46 1.44 11.8 0 1 140.95 31.97
  L 135.47 31.97
  A 0.85 0.84 10.6 0 0 134.68 32.50
  L 127.59 50.02
  A 1.34 1.33 12.0 0 1 126.31 50.85
  L 117.95 50.63
  L 125.08 32.93
  Q 125.17 31.17 119.09 32.18
  L 118.83 31.78
  Q 118.60 31.42 118.76 31.03
  L 121.12 25.20
  A 1.20 1.19 10.9 0 1 122.23 24.45
  Q 130.15 24.42 143.50 24.47
  Q 144.66 24.48 144.81 25.45
  Z"
/>
<path fill="#ffffff" d="
  M 168.08 25.60
  Q 166.28 28.15 165.66 30.76
  Q 165.38 31.96 164.15 31.95
  Q 159.07 31.92 154.65 31.99
  Q 153.21 32.01 153.42 33.24
  Q 153.50 33.71 153.97 33.72
  Q 154.39 33.73 154.63 33.65
  Q 158.39 33.67 161.77 33.72
  Q 162.63 33.74 162.77 34.74
  L 160.57 39.54
  A 1.86 1.86 0.0 0 1 158.88 40.62
  L 150.89 40.62
  A 0.90 0.88 -71.6 0 0 150.17 40.99
  Q 149.50 41.90 149.84 43.01
  L 160.35 43.36
  L 158.06 49.72
  A 1.43 1.43 0.0 0 1 156.70 50.67
  L 137.22 50.57
  L 147.68 24.93
  A 0.77 0.76 10.7 0 1 148.39 24.45
  Q 157.62 24.40 166.99 24.48
  Q 168.05 24.49 168.08 25.60
  Z"
/>
<path fill="#ffffff" d="
  M 190.77 25.67
  L 188.60 30.85
  Q 188.15 31.93 186.98 31.93
  L 178.74 31.93
  Q 178.12 31.93 177.88 32.51
  L 177.05 34.56
  Q 176.84 35.08 177.39 35.21
  Q 177.75 35.29 178.34 35.05
  Q 181.88 35.28 183.50 35.14
  Q 184.73 35.03 185.45 36.21
  L 182.67 41.95
  A 1.58 1.58 0.0 0 1 181.25 42.84
  L 174.53 42.84
  A 1.22 1.20 -78.8 0 0 173.41 43.60
  L 170.82 50.00
  A 1.29 1.28 -78.5 0 1 169.62 50.80
  L 161.99 50.71
  Q 161.18 50.35 161.60 49.32
  Q 164.67 41.85 171.56 25.03
  A 0.97 0.97 0.0 0 1 172.45 24.44
  Q 181.40 24.44 189.79 24.45
  Q 190.35 24.45 190.60 24.69
  Q 190.98 25.06 190.77 25.67
  Z"
/>
<path fill="#ffffff" d="
  M 202.75 25.79
  Q 198.38 34.23 195.97 43.28
  Q 199.43 44.34 200.78 41.27
  Q 204.34 33.22 207.47 25.13
  A 0.70 0.70 0.0 0 1 208.15 24.68
  L 217.51 25.12
  Q 214.33 31.52 212.08 37.22
  Q 209.84 42.89 207.91 45.21
  Q 199.98 54.75 187.01 49.28
  Q 184.98 45.29 186.49 41.52
  Q 189.83 33.20 193.30 24.99
  A 0.54 0.54 0.0 0 1 193.80 24.66
  L 201.93 24.66
  A 0.84 0.83 76.9 0 1 202.68 25.13
  Q 202.88 25.53 202.75 25.79
  Z"
/>
<path fill="#ffffff" d="
  M 243.28 25.69
  L 240.91 30.88
  A 1.94 1.93 -77.5 0 1 239.16 32.00
  L 233.95 32.00
  A 0.81 0.79 10.7 0 0 233.20 32.50
  L 226.34 49.44
  A 2.19 2.19 0.0 0 1 224.50 50.81
  Q 220.47 51.17 216.44 50.17
  L 223.57 32.81
  Q 222.24 31.22 216.83 32.22
  L 219.47 25.41
  A 1.51 1.51 0.0 0 1 220.88 24.44
  Q 231.49 24.44 242.00 24.53
  Q 243.25 24.54 243.28 25.69
  Z"
/>
<path fill="#ffffff" d="
  M 265.93 25.56
  Q 264.09 28.13 263.40 30.83
  A 1.49 1.48 -82.5 0 1 261.95 31.95
  Q 252.78 31.92 252.14 32.02
  Q 251.14 32.17 251.21 33.14
  Q 251.25 33.62 251.72 33.71
  Q 252.20 33.80 252.79 33.67
  Q 256.11 33.71 259.44 33.60
  Q 260.47 33.56 260.47 34.74
  L 258.35 39.64
  A 1.69 1.64 11.5 0 1 256.82 40.62
  L 249.06 40.61
  A 1.62 1.56 -19.3 0 0 247.76 43.19
  Q 247.81 43.25 248.72 43.14
  L 257.52 43.13
  Q 258.02 43.13 258.07 43.63
  L 258.11 43.99
  L 255.70 50.02
  A 0.94 0.94 0.0 0 1 254.81 50.61
  L 235.02 50.55
  L 245.24 25.27
  A 1.33 1.32 -78.6 0 1 246.46 24.45
  L 264.90 24.45
  Q 265.45 24.45 265.75 24.90
  Q 265.96 25.20 265.93 25.56
  Z"
/>
<path fill="#ffffff" d="
  M 334.77 25.68
  L 327.60 42.31
  Q 327.39 42.79 327.80 43.11
  Q 328.07 43.31 328.56 43.13
  L 335.76 43.17
  A 0.55 0.54 -10.0 0 1 336.27 43.52
  Q 336.31 43.64 336.34 43.80
  L 333.99 49.90
  A 1.27 1.27 0.0 0 1 332.79 50.71
  L 314.82 50.52
  L 325.17 25.00
  Q 325.39 24.45 325.99 24.45
  L 333.89 24.45
  Q 334.45 24.45 334.72 24.93
  Q 334.92 25.28 334.77 25.68
  Z"
/>
<path fill="#ffffff" d="
  M 379.97 25.67
  L 372.81 42.50
  Q 372.59 43.03 373.14 43.18
  Q 373.54 43.30 374.30 43.16
  L 381.91 43.34
  L 379.82 49.05
  A 2.75 2.75 0.0 0 1 377.22 50.86
  L 361.01 50.79
  Q 360.56 50.60 360.41 50.18
  Q 360.30 49.87 360.49 49.42
  Q 365.46 37.03 370.52 24.92
  Q 370.72 24.44 371.25 24.44
  L 379.24 24.44
  Q 379.85 24.44 380.00 25.02
  Q 380.07 25.32 379.97 25.67
  Z"
/>
<path fill="#ffffff" d="
  M 465.90 25.67
  L 463.45 31.16
  A 1.32 1.31 -77.8 0 1 462.23 31.95
  Q 457.59 31.94 452.75 31.97
  Q 452.05 31.97 451.85 32.18
  Q 451.51 32.53 451.42 33.07
  Q 451.31 33.70 451.95 33.68
  L 453.30 33.64
  Q 456.51 33.74 459.76 33.63
  Q 460.42 33.61 460.61 33.91
  Q 460.82 34.26 460.83 34.94
  Q 459.39 36.96 458.86 39.32
  A 1.68 1.67 6.2 0 1 457.22 40.63
  L 449.15 40.63
  Q 448.66 40.63 448.36 41.01
  Q 447.87 41.61 447.62 42.35
  Q 447.42 42.92 447.99 43.12
  Q 448.47 43.29 449.17 43.13
  L 457.86 43.18
  Q 458.27 43.18 458.35 43.58
  Q 458.38 43.75 458.25 43.93
  L 455.68 50.02
  Q 455.48 50.49 454.96 50.49
  L 435.31 50.50
  L 445.57 25.03
  A 0.95 0.95 0.0 0 1 446.45 24.44
  L 465.00 24.46
  A 1.31 1.14 -11.5 0 1 466.13 25.10
  Q 466.23 25.31 465.90 25.67
  Z"
/>
<path fill="#ffffff" d="
  M 401.52 25.05
  Q 399.64 28.60 395.19 39.40
  Q 394.03 42.24 394.61 43.23
  Q 397.68 44.43 399.21 40.93
  Q 402.56 33.22 405.67 25.23
  Q 405.86 24.74 406.39 24.76
  L 415.82 25.14
  Q 412.91 30.59 410.86 35.57
  Q 407.79 43.00 406.27 44.99
  Q 398.95 54.51 385.44 49.58
  Q 383.23 45.63 384.82 41.55
  Q 388.76 31.44 391.50 25.14
  Q 391.71 24.66 392.22 24.68
  L 401.52 25.05
  Z"
/>
<path fill="#000000" d="
  M 40.81 50.91
  L 48.68 50.77
  A 1.69 1.69 0.0 0 0 50.33 49.21
  L 52.30 24.58
  L 50.78 50.95
  A 0.91 0.90 -1.9 0 1 49.98 51.80
  Q 44.64 52.43 40.81 50.91
  Z"
/>
<path fill="#000000" d="
  M 144.81 25.45
  Q 144.92 29.22 142.85 32.42
  A 2.04 2.02 -73.6 0 1 141.14 33.36
  L 136.25 33.36
  A 1.19 1.19 0.0 0 0 135.15 34.10
  L 128.23 51.20
  Q 127.98 51.81 127.32 51.80
  Q 123.89 51.78 120.25 51.92
  Q 119.55 51.95 117.95 50.63
  L 126.31 50.85
  A 1.34 1.33 12.0 0 0 127.59 50.02
  L 134.68 32.50
  A 0.85 0.84 10.6 0 1 135.47 31.97
  L 140.95 31.97
  A 1.46 1.44 11.8 0 0 142.28 31.11
  L 144.81 25.45
  Z"
/>
<path fill="#000000" d="
  M 401.52 25.05
  Q 398.84 34.56 394.61 43.23
  Q 394.03 42.24 395.19 39.40
  Q 399.64 28.60 401.52 25.05
  Z"
/>
<path fill="#000000" d="
  M 72.56 24.96
  L 65.70 43.13
  Q 65.09 43.41 64.88 42.89
  A 0.36 0.36 0.0 0 1 64.88 42.61
  L 72.56 24.96
  Z"
/>
<path fill="#000000" d="
  M 168.08 25.60
  Q 168.32 27.65 166.72 30.98
  C 166.00 32.46 165.91 33.22 164.13 33.31
  Q 161.27 33.46 157.25 33.32
  Q 156.86 33.31 156.53 33.11
  Q 155.69 32.63 154.63 33.65
  Q 154.39 33.73 153.97 33.72
  Q 153.50 33.71 153.42 33.24
  Q 153.21 32.01 154.65 31.99
  Q 159.07 31.92 164.15 31.95
  Q 165.38 31.96 165.66 30.76
  Q 166.28 28.15 168.08 25.60
  Z"
/>
<path fill="#000000" d="
  M 178.34 35.05
  Q 177.75 35.29 177.39 35.21
  Q 176.84 35.08 177.05 34.56
  L 177.88 32.51
  Q 178.12 31.93 178.74 31.93
  L 186.98 31.93
  Q 188.15 31.93 188.60 30.85
  L 190.77 25.67
  C 191.19 26.20 191.39 26.78 191.12 27.47
  Q 190.65 28.61 189.08 32.23
  A 1.71 1.70 -76.8 0 1 187.45 33.25
  Q 183.70 33.09 179.81 33.14
  Q 178.18 33.16 178.34 35.05
  Z"
/>
<path fill="#000000" d="
  M 202.75 25.79
  Q 203.26 26.28 202.94 27.21
  Q 200.15 35.25 195.97 43.28
  Q 198.38 34.23 202.75 25.79
  Z"
/>
<path fill="#000000" d="
  M 217.51 25.12
  Q 215.37 32.59 212.41 39.51
  Q 209.50 46.35 206.13 48.93
  Q 201.00 52.85 193.26 52.21
  Q 188.85 51.84 187.01 49.28
  Q 199.98 54.75 207.91 45.21
  Q 209.84 42.89 212.08 37.22
  Q 214.33 31.52 217.51 25.12
  Z"
/>
<path fill="#000000" d="
  M 243.28 25.69
  Q 243.25 28.93 241.61 32.07
  A 2.42 2.42 0.0 0 1 239.47 33.36
  L 234.85 33.36
  A 1.42 1.42 0.0 0 0 233.54 34.24
  L 226.67 51.22
  A 0.86 0.85 10.3 0 1 225.89 51.75
  Q 224.47 51.77 219.01 51.92
  Q 216.95 51.97 216.44 50.17
  Q 220.47 51.17 224.50 50.81
  A 2.19 2.19 0.0 0 0 226.34 49.44
  L 233.20 32.50
  A 0.81 0.79 10.7 0 1 233.95 32.00
  L 239.16 32.00
  A 1.94 1.93 -77.5 0 0 240.91 30.88
  L 243.28 25.69
  Z"
/>
<path fill="#000000" d="
  M 265.93 25.56
  Q 265.87 29.41 263.63 32.75
  Q 263.31 33.21 262.75 33.21
  L 252.77 33.21
  A 0.12 0.12 0.0 0 0 252.68 33.40
  Q 252.78 33.51 252.79 33.67
  Q 252.20 33.80 251.72 33.71
  Q 251.25 33.62 251.21 33.14
  Q 251.14 32.17 252.14 32.02
  Q 252.78 31.92 261.95 31.95
  A 1.49 1.48 -82.5 0 0 263.40 30.83
  Q 264.09 28.13 265.93 25.56
  Z"
/>
<path fill="#000000" d="
  M 334.77 25.68
  Q 335.38 26.26 335.06 27.00
  Q 331.75 34.89 328.56 43.13
  Q 328.07 43.31 327.80 43.11
  Q 327.39 42.79 327.60 42.31
  L 334.77 25.68
  Z"
/>
<path fill="#000000" d="
  M 379.97 25.67
  Q 380.64 26.32 380.40 26.90
  Q 377.10 34.68 373.94 42.51
  Q 373.82 42.80 374.07 43.01
  Q 374.17 43.09 374.30 43.16
  Q 373.54 43.30 373.14 43.18
  Q 372.59 43.03 372.81 42.50
  L 379.97 25.67
  Z"
/>
<path fill="#000000" d="
  M 415.82 25.14
  Q 412.09 37.81 409.31 42.83
  Q 402.47 55.22 388.08 51.64
  Q 386.77 51.31 385.44 49.58
  Q 398.95 54.51 406.27 44.99
  Q 407.79 43.00 410.86 35.57
  Q 412.91 30.59 415.82 25.14
  Z"
/>
<path fill="#000000" d="
  M 465.90 25.67
  Q 466.45 26.82 465.80 28.34
  Q 464.29 31.88 463.83 32.58
  A 1.07 1.06 12.4 0 1 463.05 33.07
  Q 458.31 33.59 454.08 33.30
  Q 451.97 33.16 453.30 33.64
  L 451.95 33.68
  Q 451.31 33.70 451.42 33.07
  Q 451.51 32.53 451.85 32.18
  Q 452.05 31.97 452.75 31.97
  Q 457.59 31.94 462.23 31.95
  A 1.32 1.31 -77.8 0 0 463.45 31.16
  L 465.90 25.67
  Z"
/>
<path fill="#000000" d="
  M 622.65 32.39
  L 621.88 25.73
  Q 623.16 28.83 622.65 32.39
  Z"
/>
<path fill="#000000" d="
  M 640.00 26.14
  L 640.00 27.26
  L 630.35 50.93
  A 1.43 1.43 0.0 0 1 629.04 51.82
  Q 625.87 51.84 622.75 51.85
  Q 621.61 51.86 620.69 50.42
  L 628.57 50.79
  A 0.90 0.89 -77.5 0 0 629.44 50.23
  L 639.47 25.69
  L 640.00 26.14
  Z"
/>
<path fill="#000000" d="
  M 119.07 25.77
  Q 119.63 27.99 118.39 30.94
  C 118.13 31.53 117.63 31.67 117.40 32.22
  Q 112.50 44.05 109.67 51.18
  A 1.03 1.03 0.0 0 1 108.72 51.82
  L 101.39 51.82
  Q 100.86 51.82 100.50 51.43
  L 99.38 50.20
  Q 103.33 51.11 107.51 50.82
  Q 109.16 50.70 109.75 49.09
  Q 114.00 37.51 119.07 25.77
  Z"
/>
<path fill="#000000" d="
  M 367.47 25.94
  Q 368.07 26.82 367.69 27.51
  Q 366.10 30.43 364.20 32.84
  A 1.25 1.24 25.7 0 1 362.94 33.28
  Q 351.93 30.66 349.70 41.90
  Q 349.29 30.15 362.20 31.94
  Q 363.20 32.08 363.77 31.26
  L 367.47 25.94
  Z"
/>
<path fill="#000000" d="
  M 580.18 25.67
  Q 579.48 29.43 576.39 32.92
  A 1.38 1.37 -58.8 0 1 574.88 33.30
  Q 570.37 31.62 566.29 34.28
  Q 562.43 36.79 562.11 41.78
  Q 561.25 39.12 562.52 36.50
  C 564.62 32.15 569.72 30.50 574.20 31.96
  A 1.67 1.67 0.0 0 0 576.22 31.09
  Q 577.57 28.27 580.18 25.67
  Z"
/>
<path fill="#000000" d="
  M 499.55 32.60
  Q 501.18 29.96 500.57 26.65
  A 0.33 0.33 0.0 0 1 501.02 26.28
  L 501.35 26.41
  A 1.15 1.14 6.2 0 1 502.05 27.27
  Q 502.93 32.03 498.73 35.16
  Q 497.89 35.79 498.32 34.82
  Q 498.70 33.97 499.55 32.60
  Z"
/>
<path fill="#000000" d="
  M 434.23 38.34
  Q 433.56 38.07 433.30 37.76
  Q 432.94 37.32 433.45 37.07
  Q 438.19 34.67 438.90 29.07
  Q 440.51 34.57 434.23 38.34
  Z"
/>
<path fill="#000000" d="
  M 74.21 50.75
  L 81.44 50.83
  A 1.76 1.75 11.4 0 0 83.08 49.74
  L 85.23 44.44
  Q 85.42 43.96 85.93 43.96
  Q 93.60 43.92 98.67 40.20
  Q 103.96 36.33 104.20 29.50
  Q 105.63 34.84 102.06 38.85
  Q 96.23 45.40 87.20 45.08
  A 1.69 1.68 11.9 0 0 85.56 46.14
  L 83.58 51.03
  A 1.25 1.24 11.4 0 1 82.41 51.80
  Q 79.19 51.76 75.75 51.85
  Q 75.13 51.86 74.82 51.62
  Q 74.42 51.32 74.21 50.75
  Z"
/>
<path fill="#000000" d="
  M 284.65 38.28
  Q 284.04 38.14 283.75 37.77
  Q 283.41 37.33 283.89 37.06
  Q 288.17 34.67 289.28 29.38
  Q 290.09 31.41 289.07 33.57
  Q 287.60 36.66 284.65 38.28
  Z"
/>
<path fill="#000000" d="
  M 0.23 50.59
  Q 4.58 50.87 7.84 50.85
  Q 9.00 50.85 9.51 50.35
  Q 10.14 49.76 10.38 48.67
  Q 10.55 47.91 12.03 44.35
  Q 12.22 43.88 12.73 43.91
  Q 17.28 44.18 22.09 42.08
  Q 29.96 38.64 31.28 29.94
  Q 31.91 40.55 20.89 44.16
  C 18.10 45.08 15.73 44.96 13.12 45.32
  A 0.80 0.80 0.0 0 0 12.50 45.81
  L 10.39 51.02
  Q 10.07 51.81 9.23 51.80
  Q 6.30 51.76 2.25 51.89
  Q 1.78 51.90 0.23 50.59
  Z"
/>
<path fill="#000000" d="
  M 576.18 48.46
  Q 581.58 52.49 587.89 50.96
  Q 604.04 47.05 604.97 30.22
  A 17.23 12.30 -38.8 0 1 599.09 46.58
  A 17.24 12.31 -38.8 0 1 582.98 52.47
  A 17.30 12.35 -38.6 0 1 576.18 48.46
  Z"
/>
<path fill="#000000" d="
  M 279.83 32.11
  C 277.20 31.13 276.01 32.33 275.76 34.79
  Q 274.93 35.07 274.59 34.66
  A 0.32 0.30 36.9 0 1 274.54 34.36
  L 275.80 31.27
  A 0.89 0.89 0.0 0 1 276.25 30.79
  Q 277.14 30.39 278.92 30.86
  Q 279.85 31.10 279.83 32.11
  Z"
/>
<path fill="#000000" d="
  M 289.19 47.97
  Q 291.61 50.13 292.45 50.40
  C 300.35 52.96 309.16 49.37 314.08 42.83
  Q 318.04 37.55 318.40 30.64
  A 17.23 12.33 -38.7 0 1 312.00 46.98
  A 17.23 12.34 -38.6 0 1 295.98 52.41
  A 17.21 12.32 -38.6 0 1 289.19 47.97
  Z"
/>
<path fill="#000000" d="
  M 429.42 32.13
  Q 425.67 30.79 425.43 34.94
  A 2.76 1.81 -36.5 0 1 424.67 34.42
  A 2.79 1.85 -37.1 0 1 428.73 30.74
  A 2.80 1.86 -36.0 0 1 429.42 32.13
  Z"
/>
<path fill="#000000" d="
  M 21.01 32.96
  Q 16.86 31.46 16.54 36.66
  Q 15.91 36.79 15.57 36.63
  Q 15.11 36.43 15.30 35.96
  L 16.98 31.80
  Q 17.16 31.37 17.60 31.23
  Q 19.82 30.53 21.01 32.96
  Z"
/>
<path fill="#000000" d="
  M 94.26 33.15
  Q 92.05 31.76 90.79 33.25
  Q 89.87 34.33 89.52 36.62
  Q 88.85 36.83 88.54 36.33
  A 0.45 0.45 0.0 0 1 88.50 35.93
  L 90.26 31.59
  Q 90.46 31.10 90.99 31.07
  Q 93.78 30.91 94.26 33.15
  Z"
/>
<path fill="#000000" d="
  M 307.93 33.25
  Q 304.88 31.82 302.10 34.35
  Q 298.89 37.26 298.34 42.64
  A 7.05 4.02 -56.5 0 1 300.70 33.93
  A 7.01 4.05 -56.6 0 1 303.88 31.59
  A 7.03 4.01 -56.6 0 1 307.93 33.25
  Z"
/>
<path fill="#000000" d="
  M 594.59 33.09
  Q 590.69 31.89 588.16 34.93
  Q 585.70 37.87 584.94 42.31
  A 7.02 4.03 -56.9 0 1 589.24 32.28
  A 7.04 4.05 -57.0 0 1 592.98 31.38
  A 7.00 4.01 -57.1 0 1 594.59 33.09
  Z"
/>
<path fill="#ffffff" d="
  M 521.33 38.58
  A 0.03 0.03 0.0 0 1 521.30 38.61
  L 521.22 38.61
  A 3.39 1.41 -88.2 0 1 519.92 35.18
  L 519.92 34.90
  A 3.39 1.41 -88.2 0 1 521.44 31.55
  L 521.52 31.55
  A 0.03 0.03 0.0 0 1 521.55 31.59
  L 521.33 38.58
  Z"
/>
<path fill="#000000" d="
  M 125.08 32.93
  Q 122.50 33.69 120.27 33.27
  Q 119.24 33.08 119.09 32.18
  Q 125.17 31.17 125.08 32.93
  Z"
/>
<path fill="#000000" d="
  M 223.57 32.81
  Q 221.37 33.67 219.33 33.41
  Q 218.84 33.35 218.46 33.03
  Q 217.88 32.55 216.83 32.22
  Q 222.24 31.22 223.57 32.81
  Z"
/>
<path fill="#000000" d="
  M 509.85 34.36
  Q 507.77 36.14 506.17 39.07
  Q 505.20 40.84 505.55 38.86
  Q 506.62 32.80 513.07 32.07
  Q 513.45 32.02 513.62 32.44
  L 513.76 32.78
  A 0.23 0.23 0.0 0 1 513.57 33.09
  Q 510.89 33.47 509.85 34.36
  Z"
/>
<path fill="#000000" d="
  M 42.78 35.44
  Q 40.82 37.37 39.92 39.68
  Q 39.19 40.05 38.78 39.78
  Q 38.31 39.46 38.62 38.99
  L 42.41 33.31
  Q 42.78 32.75 43.02 33.38
  Q 43.32 34.18 42.78 35.44
  Z"
/>
<path fill="#000000" d="
  M 162.77 34.74
  Q 163.06 37.85 161.11 41.14
  A 1.24 1.23 18.6 0 1 159.89 41.74
  Q 154.33 41.07 149.84 43.01
  Q 149.50 41.90 150.17 40.99
  A 0.90 0.88 -71.6 0 1 150.89 40.62
  L 158.88 40.62
  A 1.86 1.86 0.0 0 0 160.57 39.54
  L 162.77 34.74
  Z"
/>
<path fill="#000000" d="
  M 260.47 34.74
  Q 260.80 37.99 258.82 41.19
  A 1.30 1.30 0.0 0 1 257.71 41.81
  L 249.56 41.81
  Q 249.09 41.81 248.78 42.17
  Q 248.32 42.71 248.72 43.14
  Q 247.81 43.25 247.76 43.19
  A 1.62 1.56 -19.3 0 1 249.06 40.61
  L 256.82 40.62
  A 1.69 1.64 11.5 0 0 258.35 39.64
  L 260.47 34.74
  Z"
/>
<path fill="#000000" d="
  M 460.83 34.94
  Q 460.81 37.99 459.31 40.91
  A 1.62 1.60 -76.3 0 1 457.90 41.78
  Q 454.14 41.84 450.51 41.79
  Q 449.94 41.79 449.51 41.99
  Q 448.45 42.49 449.17 43.13
  Q 448.47 43.29 447.99 43.12
  Q 447.42 42.92 447.62 42.35
  Q 447.87 41.61 448.36 41.01
  Q 448.66 40.63 449.15 40.63
  L 457.22 40.63
  A 1.68 1.67 6.2 0 0 458.86 39.32
  Q 459.39 36.96 460.83 34.94
  Z"
/>
<path fill="#000000" d="
  M 161.99 50.71
  L 169.62 50.80
  A 1.29 1.28 -78.5 0 0 170.82 50.00
  L 173.41 43.60
  A 1.22 1.20 -78.8 0 1 174.53 42.84
  L 181.25 42.84
  A 1.58 1.58 0.0 0 0 182.67 41.95
  L 185.45 36.21
  Q 185.34 39.67 183.52 43.12
  Q 183.07 43.98 182.11 44.03
  Q 178.80 44.21 175.76 44.05
  Q 174.31 43.97 173.61 45.66
  Q 172.26 48.91 171.67 50.89
  A 1.25 1.24 -81.5 0 1 170.48 51.77
  Q 166.87 51.79 163.00 51.86
  Q 162.15 51.88 161.99 50.71
  Z"
/>
<path fill="#000000" d="
  M 616.05 39.87
  L 611.28 51.14
  A 1.09 1.09 0.0 0 1 610.25 51.80
  Q 607.37 51.73 604.31 51.88
  Q 603.44 51.93 602.79 51.44
  Q 602.27 51.07 601.54 50.38
  L 609.20 50.81
  A 1.49 1.49 0.0 0 0 610.65 49.89
  L 615.28 38.46
  Q 615.48 37.96 615.88 38.34
  Q 616.62 39.05 616.05 39.87
  Z"
/>
<path fill="#000000" d="
  M 624.27 40.95
  Q 621.50 43.60 618.89 46.14
  Q 618.10 46.90 617.35 45.47
  L 624.52 38.56
  Q 625.75 37.37 625.23 39.00
  Q 624.98 39.77 624.27 40.95
  Z"
/>
<path fill="#ffffff" d="
  M 486.84 43.20
  Q 484.40 44.04 483.72 38.74
  Q 485.37 39.29 487.23 39.30
  Q 489.26 39.32 488.02 40.93
  Q 487.51 41.59 486.84 43.20
  Z"
/>
<path fill="#000000" d="
  M 276.63 41.43
  Q 271.89 40.41 271.75 44.30
  Q 271.44 44.79 270.89 44.56
  Q 270.48 44.38 270.65 43.98
  L 272.10 40.39
  Q 272.31 39.86 272.89 39.82
  C 273.97 39.73 275.67 39.64 276.33 40.52
  Q 276.69 41.01 276.63 41.43
  Z"
/>
<path fill="#000000" d="
  M 426.40 41.78
  Q 423.13 40.06 421.63 42.97
  Q 421.07 44.05 421.71 44.50
  Q 421.33 44.74 420.81 44.64
  A 0.61 0.61 0.0 0 1 420.36 43.81
  L 421.54 40.89
  A 2.25 2.25 0.0 0 1 424.56 39.69
  Q 426.47 40.57 426.40 41.78
  Z"
/>
<path fill="#000000" d="
  M 259.75 50.73
  Q 268.74 51.20 274.00 50.78
  Q 277.52 50.50 281.39 48.16
  Q 284.96 45.99 285.98 41.03
  Q 286.84 46.81 281.19 49.92
  Q 277.73 51.83 272.77 52.17
  Q 267.54 52.54 261.25 51.98
  Q 260.14 51.88 259.75 50.73
  Z"
/>
<path fill="#000000" d="
  M 408.67 50.42
  Q 417.53 51.46 424.46 50.67
  Q 425.75 50.52 427.73 49.83
  Q 433.96 47.65 435.62 40.95
  Q 436.46 47.24 430.20 50.19
  C 424.72 52.78 417.16 52.61 411.25 52.04
  Q 410.17 51.93 408.67 50.42
  Z"
/>
<path fill="#ffffff" d="
  M 547.43 43.65
  L 544.84 49.87
  Q 544.43 50.88 543.33 50.83
  L 536.13 50.49
  L 538.89 43.47
  A 1.09 1.08 -79.3 0 1 539.90 42.78
  Q 543.35 42.75 546.97 43.05
  Q 547.45 43.09 547.43 43.65
  Z"
/>
<path fill="#000000" d="
  M 571.25 48.46
  Q 570.62 46.05 571.42 43.46
  Q 572.24 45.99 571.25 48.46
  Z"
/>
<path fill="#000000" d="
  M 53.02 50.87
  L 69.67 50.84
  A 1.81 1.80 10.7 0 0 71.35 49.70
  L 73.86 43.34
  Q 73.92 47.24 71.89 51.10
  A 1.29 1.28 13.7 0 1 70.75 51.79
  Q 62.38 51.80 54.01 51.84
  Q 53.29 51.85 53.02 50.87
  Z"
/>
<path fill="#000000" d="
  M 314.82 50.52
  L 332.79 50.71
  A 1.27 1.27 0.0 0 0 333.99 49.90
  L 336.34 43.80
  C 336.85 44.49 337.07 45.23 336.67 46.07
  Q 335.47 48.57 334.66 51.03
  A 1.15 1.14 -81.0 0 1 333.59 51.81
  Q 328.96 51.88 317.01 51.66
  Q 316.23 51.64 314.82 50.52
  Z"
/>
<path fill="#000000" d="
  M 359.29 43.65
  Q 359.74 46.80 358.98 49.84
  A 1.82 1.82 0.0 0 1 357.73 51.13
  C 352.84 52.55 344.14 53.93 341.00 48.81
  Q 345.08 51.80 350.27 51.38
  Q 353.87 51.08 357.03 49.97
  A 2.32 2.32 0.0 0 0 358.58 47.60
  Q 358.42 45.51 359.29 43.65
  Z"
/>
<path fill="#000000" d="
  M 361.01 50.79
  L 377.22 50.86
  A 2.75 2.75 0.0 0 0 379.82 49.05
  L 381.91 43.34
  Q 381.89 47.31 379.74 51.32
  Q 379.50 51.76 379.01 51.76
  Q 370.72 51.82 362.51 51.87
  Q 361.22 51.88 361.01 50.79
  Z"
/>
<path fill="#000000" d="
  M 547.43 43.65
  Q 547.81 43.94 547.89 44.55
  Q 547.95 45.07 547.75 45.50
  Q 546.55 48.04 545.55 50.96
  A 1.24 1.23 8.9 0 1 544.39 51.80
  Q 540.77 51.82 537.99 51.85
  Q 537.41 51.85 536.13 50.49
  L 543.33 50.83
  Q 544.43 50.88 544.84 49.87
  L 547.43 43.65
  Z"
/>
<path fill="#000000" d="
  M 160.35 43.36
  Q 160.76 46.05 160.27 47.01
  Q 159.24 49.06 158.54 51.02
  A 1.14 1.13 9.1 0 1 157.48 51.78
  Q 148.62 51.84 139.50 51.78
  Q 138.80 51.77 137.22 50.57
  L 156.70 50.67
  A 1.43 1.43 0.0 0 0 158.06 49.72
  L 160.35 43.36
  Z"
/>
<path fill="#000000" d="
  M 235.02 50.55
  L 254.81 50.61
  A 0.94 0.94 0.0 0 0 255.70 50.02
  L 258.11 43.99
  C 258.41 44.65 258.62 45.27 258.33 46.01
  Q 257.61 47.86 256.24 51.16
  A 1.00 0.98 11.0 0 1 255.32 51.77
  Q 247.31 51.86 237.25 51.83
  Q 236.59 51.82 235.02 50.55
  Z"
/>
<path fill="#000000" d="
  M 435.31 50.50
  L 454.96 50.49
  Q 455.48 50.49 455.68 50.02
  L 458.25 43.93
  L 458.66 44.68
  Q 458.92 45.16 458.72 45.66
  L 456.54 51.05
  A 1.21 1.21 0.0 0 1 455.42 51.80
  Q 449.96 51.85 437.25 51.83
  Q 436.62 51.83 435.31 50.50
  Z"
/>
<path fill="#000000" d="
  M 41.47 46.68
  Q 38.24 47.68 35.83 47.22
  A 1.69 1.69 0.0 0 0 34.04 48.04
  L 32.29 51.07
  A 1.44 1.43 -73.9 0 1 31.02 51.78
  Q 27.91 51.72 24.61 51.85
  Q 23.67 51.89 23.01 51.42
  Q 22.47 51.04 21.65 50.34
  L 30.21 50.86
  A 1.44 1.43 16.4 0 0 31.54 50.14
  L 33.69 46.43
  Q 33.93 46.00 34.42 45.93
  Q 38.59 45.37 41.47 46.68
  Z"
/>
<path fill="#ffffff" d="
  M 507.67 51.16
  Q 508.99 51.37 509.80 51.30
  Q 512.81 51.03 510.41 52.72
  Q 504.32 56.99 497.12 57.98
  A 3.34 3.33 65.8 0 1 494.15 56.85
  L 493.19 55.74
  Q 491.70 54.01 493.98 54.00
  Q 501.66 53.97 504.35 49.23
  Q 504.73 48.56 505.27 49.10
  L 506.96 50.79
  Q 507.26 51.09 507.67 51.16
  Z
  M 497.48 55.08
  Q 496.29 55.10 496.22 55.13
  Q 494.25 56.04 496.29 56.47
  Q 500.77 57.40 504.05 53.62
  Q 504.43 53.19 504.21 52.66
  L 504.09 52.37
  A 0.28 0.28 0.0 0 0 503.64 52.28
  C 502.02 53.83 499.76 55.05 497.48 55.08
  Z"
/>
<path fill="#000000" d="
  M 571.00 49.14
  Q 571.35 50.76 569.35 51.31
  Q 564.15 52.75 558.82 52.23
  Q 555.04 51.86 553.21 48.77
  Q 557.03 51.46 560.37 51.36
  Q 565.34 51.20 567.86 50.60
  Q 568.64 50.41 571.00 49.14
  Z"
/>
<path fill="#000000" d="
  M 497.48 55.08
  C 499.76 55.05 502.02 53.83 503.64 52.28
  A 0.28 0.28 0.0 0 1 504.09 52.37
  L 504.21 52.66
  Q 504.43 53.19 504.05 53.62
  Q 500.77 57.40 496.29 56.47
  Q 494.25 56.04 496.22 55.13
  Q 496.29 55.10 497.48 55.08
  Z"
/>
<path fill="#000000" d="
  M 496.51 65.40
  Q 497.11 65.34 498.82 65.39
  Q 499.38 65.41 499.05 65.86
  Q 498.58 66.51 497.78 66.78
  Q 485.22 70.99 476.62 61.96
  Q 476.20 61.52 476.15 60.71
  A 0.51 0.51 0.0 0 1 476.93 60.25
  Q 486.60 66.33 496.51 65.40
  Z"
/>
</svg>
