<svg width="326" height="361" viewBox="0 0 326 361" fill="none" xmlns="http://www.w3.org/2000/svg">
<path d="M310.301 283.754L311.11 284.74L310.301 283.754L255.351 328.844L223.132 355.281C226.76 347.099 228.785 338.053 228.785 328.54C228.785 291.996 199.054 262.265 162.51 262.265C125.966 262.265 96.235 291.996 96.235 328.54C96.235 338.053 98.2601 347.106 101.888 355.291L69.6688 328.854L14.7188 283.764L13.91 284.75L14.7187 283.764C6.06579 276.665 1.275 267.102 1.275 257.19V15.27C1.275 7.76819 8.78699 1.275 18.61 1.275H306.41C316.233 1.275 323.745 7.76819 323.745 15.27V257.18C323.745 267.091 318.954 276.655 310.301 283.754Z" fill="#232323" fill-opacity="0.36" stroke="url(#paint0_linear_478_133)" stroke-width="2.55"/>
<defs>
<linearGradient id="paint0_linear_478_133" x1="0" y1="180.03" x2="325.02" y2="180.03" gradientUnits="userSpaceOnUse">
<stop stop-color="#00FD54"/>
<stop offset="1" stop-color="#00AE3A"/>
</linearGradient>
</defs>
</svg>
