<svg width="34" height="34" viewBox="0 0 34 34" fill="none" xmlns="http://www.w3.org/2000/svg">
<path d="M26.9502 22.4738C26.4574 23.5058 25.8521 24.4468 25.1558 25.3024C22.7239 28.27 19.1512 30.1896 15.2571 31.0718C12.9646 31.5905 10.5703 31.7455 8.22951 31.5477C8.49733 31.291 8.81336 30.9542 9.1401 30.5585C10.6238 28.7459 12.1986 25.7943 9.42399 24.7677C8.56696 24.4468 7.58674 24.5805 6.7565 24.9655C5.85127 25.3879 5.09601 26.0296 4.4586 26.8049C2.88382 28.7245 2.05357 31.4568 1.55543 33.6812C1.18584 32.7454 -0.0622079 29.318 1.30368 25.297C1.72683 24.0458 2.39103 22.9176 3.21591 21.907C3.55872 21.4846 3.93367 21.0836 4.3354 20.7039C5.40133 19.688 6.68151 18.9661 7.801 18.0304C8.02061 17.8486 8.22951 17.6615 8.43305 17.4583C8.57232 17.3193 8.71159 17.1642 8.84014 17.0091C8.91513 16.9182 8.99012 16.822 9.0544 16.7257C9.79358 15.7045 10.2328 14.4212 9.93285 13.1807C9.69181 12.1701 8.79193 11.3841 7.79564 11.0365C7.45283 10.9135 7.09931 10.8494 6.7565 10.844C6.67615 10.844 6.5958 10.844 6.51546 10.8494C5.55666 10.9082 4.60322 11.4429 3.89082 12.3091C3.22127 13.1272 2.76597 14.2447 2.72848 15.5387C2.7499 14.9184 2.34282 14.1752 2.32675 13.5068C2.2839 12.0952 2.81954 10.7317 3.7087 9.64627C4.12115 9.14365 4.61393 8.6945 5.15493 8.33625C5.22456 8.28813 5.29955 8.24535 5.36919 8.19723C6.15658 7.716 6.94397 7.42725 7.79564 7.37913C8.15987 7.3524 8.52947 7.37913 8.91513 7.43795C9.53112 7.53954 10.2328 7.76412 10.9238 7.85502C10.6667 8.84422 10.5274 9.88154 10.5274 10.9456C10.5274 15.6938 13.2324 19.8056 17.1854 21.8375C18.8673 22.7037 20.7742 23.1903 22.7936 23.1903C24.2505 23.1903 25.6485 22.939 26.9448 22.4684L26.9502 22.4738Z" fill="#00FF55"/>
<path d="M33.6509 9.83876C33.3831 7.27218 32.2476 4.78581 30.3728 2.99991C30.271 2.90366 30.1693 2.80741 30.0621 2.71651C29.4408 2.17646 28.7552 1.71127 28.0213 1.33163C27.2875 0.951994 26.5108 0.65256 25.7127 0.438679C24.9146 0.224798 24.0897 0.101816 23.2649 0.0590401C22.44 0.0216109 21.6097 0.0697335 20.7956 0.208756C19.9814 0.347779 19.1886 0.583049 18.428 0.903871C17.6781 1.22469 16.9711 1.63641 16.323 2.12834C15.6748 2.61492 15.0856 3.18171 14.5661 3.80196C14.0411 4.42222 13.5858 5.10664 13.2055 5.82314C12.8252 6.53964 12.5199 7.29892 12.3003 8.08493C12.0807 8.8656 11.9414 9.66765 11.8986 10.4804C11.8557 11.2878 11.8986 12.1006 12.0485 12.8919C12.8788 17.3941 16.8265 21.1424 21.374 21.7466C25.9216 22.3508 30.7156 19.7628 32.6975 15.6296C33.5599 13.833 33.8598 11.8065 33.6509 9.82806V9.83876ZM21.8186 0.957341C23.5862 0.780889 25.2949 1.08032 26.8108 1.74335C26.543 1.85564 26.2162 1.99466 25.8092 2.17646L21.4383 1.62037L20.6991 1.13914C21.0634 1.05893 21.4383 0.994771 21.8186 0.962688V0.957341ZM21.2401 2.62561L21.3044 2.52402L25.686 3.07476L26.8108 5.76432L25.4503 7.25614L25.1717 7.56092L21.1009 7.2401L19.7885 4.95692L21.2401 2.62561ZM15.8409 6.42201L16.1248 5.72689L19.0119 5.43815L20.2813 7.64647L18.6583 11.5498L18.0745 11.6354L16.1623 11.9134L14.5339 9.69439L15.8516 6.42735L15.8409 6.42201ZM12.8306 9.95105C13.0234 7.94591 13.8269 6.09049 15.0588 4.58263C15.1178 4.50777 15.182 4.43291 15.241 4.3634V5.03178L15.2517 5.43815L13.7947 9.06344L12.8306 9.95639V9.95105ZM14.2875 16.1964L15.1392 16.3889L18.2298 19.0784L18.4655 19.95C16.7515 19.1265 15.2945 17.8165 14.2875 16.2017V16.1964ZM21.5615 17.4904L20.6938 17.7844L18.8672 18.41L15.6748 15.6349L16.323 12.8117L18.4387 12.5069L18.8887 12.4428L21.9686 15.0735L21.5562 17.4904H21.5615ZM22.4721 17.6133L22.8738 15.2339L26.3501 13.1111L26.6287 13.2234L27.9999 13.7849L28.6641 14.0576L28.7873 16.977L28.2945 17.2604L24.9253 19.18L24.2344 18.7416L22.4668 17.6133H22.4721ZM27.9785 19.5115C27.0304 20.0783 25.9806 20.5007 24.8503 20.7307L25.3753 19.9821L28.1874 18.378L29.2747 17.7577L30.2335 17.6668C29.5747 18.3833 28.8141 19.0089 27.9731 19.5169L27.9785 19.5115ZM28.9748 13.202L27.7482 12.6994L26.9876 12.3839L26.8644 12.3358L25.8681 8.16514L25.9323 8.09562L27.5018 6.37388L29.3712 6.88185L30.33 7.14385L31.2834 11.1702L28.9748 13.1967V13.202ZM32.81 11.8118L32.2101 11.0953L31.2513 7.05295L31.5566 6.00494C32.2208 7.17594 32.66 8.49665 32.7993 9.91896C32.8635 10.5606 32.8635 11.1862 32.81 11.8065V11.8118Z" fill="#00FF55"/>
</svg>
