<svg width="18" height="20" viewBox="0 0 18 20" fill="none" xmlns="http://www.w3.org/2000/svg">
<path d="M8.34 13.02C8.73 13.41 9.36 13.41 9.75 13.02L16.11 6.65998C16.5 6.26998 16.5 5.63998 16.11 5.24998L11.16 0.29998C10.78 -0.10002 10.15 -0.10002 9.76 0.28998L3.39 6.65998C3 7.04998 3 7.67998 3.39 8.06998L8.34 13.02ZM10.46 2.40998L14 5.94998L9.05 10.9L5.51 7.35998L10.46 2.40998ZM17.41 13.41L15.29 11.29C15.11 11.11 14.85 11 14.59 11H14.32L12.32 13H14.23L16 15H2L3.78 13H5.83L3.83 11H3.41C3.14 11 2.89 11.11 2.7 11.29L0.58 13.41C0.21 13.79 0 14.3 0 14.83V18C0 19.1 0.9 20 2 20H16C17.1 20 18 19.11 18 18V14.83C18 14.3 17.79 13.79 17.41 13.41Z" fill="white"/>
</svg>
